<?xml version="1.0" encoding="UTF-8"?>
<svg version="1.1" xmlns="http://www.w3.org/2000/svg" width="1024" height="1024">
<path d="M0 0 C1.61900711 -0.00217529 1.61900711 -0.00217529 3.27072144 -0.00439453 C19.15305194 -0.00203847 34.18000862 0.95557798 49.78564453 4 C53.29598437 4.54806688 56.64190698 4.50863837 60.1875 4.375 C60.5175 5.035 60.8475 5.695 61.1875 6.375 C64.18286737 7.51117383 66.16628489 7.34610486 69.1875 6.375 C69.1875 7.035 69.1875 7.695 69.1875 8.375 C69.90067383 8.60050537 70.61384766 8.82601074 71.34863281 9.05834961 C86.75112651 13.96464957 101.68080081 19.21945547 116.1875 26.375 C116.90518555 26.72498047 117.62287109 27.07496094 118.36230469 27.43554688 C134.74757038 35.50421966 150.11290685 45.47137899 164.2421875 57.03515625 C167.12857784 59.32819048 170.1114668 61.3475156 173.1875 63.375 C175.89006885 65.78539925 177.03366525 66.91349574 178.1875 70.375 C178.8475 70.375 179.5075 70.375 180.1875 70.375 C180.1875 71.035 180.1875 71.695 180.1875 72.375 C180.8475 72.375 181.5075 72.375 182.1875 72.375 C182.1875 73.035 182.1875 73.695 182.1875 74.375 C182.73535156 74.58898437 183.28320312 74.80296875 183.84765625 75.0234375 C186.99686897 76.8425153 189.21400175 79.32770737 191.625 82 C192.13780518 82.56178955 192.65061035 83.1235791 193.17895508 83.70239258 C209.27187619 101.54375238 209.27187619 101.54375238 212.1875 107.375 C213.1775 107.705 214.1675 108.035 215.1875 108.375 C215.56506808 109.69648827 215.8893576 111.03335921 216.1875 112.375 C217.67203464 115.08588934 218.99908202 117.18658202 221.1875 119.375 C222.15965625 121.04277538 223.09193514 122.73397991 224 124.4375 C224.78697266 125.90316406 224.78697266 125.90316406 225.58984375 127.3984375 C226.11707031 128.38070312 226.64429688 129.36296875 227.1875 130.375 C228.14233391 132.10610148 229.10030323 133.83548016 230.0625 135.5625 C230.47242188 136.29855469 230.88234375 137.03460938 231.3046875 137.79296875 C231.59601562 138.31503906 231.88734375 138.83710938 232.1875 139.375 C232.8475 139.375 233.5075 139.375 234.1875 139.375 C234.3421875 140.7671875 234.3421875 140.7671875 234.5 142.1875 C234.87775355 145.33631699 234.87775355 145.33631699 236.6875 146.875 C238.88041599 149.06791599 238.74094916 151.37673005 239.1875 154.375 C239.8475 155.035 240.5075 155.695 241.1875 156.375 C242.03812606 158.92687818 242.80875391 161.48112226 243.5625 164.0625 C244.54477902 167.37224804 245.61862148 170.5971237 246.875 173.8125 C248.1875 177.375 248.1875 177.375 248.1875 180.375 C248.8475 180.705 249.5075 181.035 250.1875 181.375 C250.94694316 184.08644942 251.59910574 186.75109555 252.1875 189.5 C253.70089285 199.18915517 253.70089285 199.18915517 258.1875 207.375 C257.89450977 209.04922986 257.56059899 210.71678227 257.1875 212.375 C257.5175 213.035 257.8475 213.695 258.1875 214.375 C258.39589176 215.81619548 258.55503682 217.26469719 258.6875 218.71484375 C258.81064575 220.04672729 258.81064575 220.04672729 258.9362793 221.40551758 C259.01918213 222.36482178 259.10208496 223.32412598 259.1875 224.3125 C259.27362549 225.30596436 259.35975098 226.29942871 259.44848633 227.32299805 C259.70338852 230.33970169 259.94754103 233.35707397 260.1875 236.375 C260.25501465 237.19838867 260.3225293 238.02177734 260.39208984 238.87011719 C263.24104868 274.99766495 257.47370544 310.10117211 246.1875 344.375 C245.40495375 346.87154432 244.64009589 349.37300222 243.875 351.875 C243.54886719 352.9371875 243.22273437 353.999375 242.88671875 355.09375 C242.54060547 356.22296875 242.54060547 356.22296875 242.1875 357.375 C242.73968201 357.21234146 243.29186401 357.04968292 243.86077881 356.88209534 C246.44873603 356.31806513 248.76629961 356.25504563 251.41503906 356.26147461 C252.45581604 356.26155014 253.49659302 356.26162567 254.56890869 356.26170349 C255.68570007 356.26686478 256.80249146 356.27202606 257.953125 356.27734375 C259.67592682 356.27946617 259.67592682 356.27946617 261.43353271 356.28163147 C265.10154831 356.28722857 268.76950285 356.29978056 272.4375 356.3125 C274.92447829 356.31751537 277.41145753 356.32207822 279.8984375 356.32617188 C285.9948125 356.33719705 292.09115189 356.35393231 298.1875 356.375 C298.1875 356.705 298.1875 357.035 298.1875 357.375 C299.10789062 357.58253906 300.02828125 357.79007812 300.9765625 358.00390625 C317.99517693 362.14591119 334.62053137 370.07369755 344.8125 385 C346.19619369 387.01825386 347.44484982 388.63234982 349.1875 390.375 C361.58486498 410.03978583 375.1875 437.84846279 375.1875 461.375 C376.1775 461.375 377.1675 461.375 378.1875 461.375 C377.99542969 462.18453125 377.80335938 462.9940625 377.60546875 463.828125 C377.09158753 468.18891139 377.73528512 471.83254933 378.5 476.125 C383.05877238 504.75283366 382.41830632 533.47291935 382.1875 562.375 C381.5275 562.375 380.8675 562.375 380.1875 562.375 C380.21199219 563.67953125 380.23648438 564.9840625 380.26171875 566.328125 C380.25713599 571.02453779 379.76584857 575.49758381 379 580.125 C378.8669043 580.93718994 378.73380859 581.74937988 378.59667969 582.58618164 C373.47872972 612.58114678 364.22478439 641.89116754 344.1875 665.375 C343.55714844 666.17808594 342.92679688 666.98117187 342.27734375 667.80859375 C328.62116169 684.53814163 307.51189078 693.32493871 286.48806763 695.67700195 C278.86815802 696.35212616 271.3262188 696.49148584 263.6796875 696.4375 C262.433013 696.43371338 261.1863385 696.42992676 259.90188599 696.42602539 C255.95538701 696.41391359 252.00896486 696.39529031 248.0625 696.375 C242.85156428 696.34828052 237.64066637 696.32835204 232.4296875 696.3125 C231.25026581 696.30420166 230.07084412 696.29590332 228.85568237 696.28735352 C227.73396637 696.28405029 226.61225037 696.28074707 225.45654297 696.27734375 C224.48457977 696.27210693 223.51261658 696.26687012 222.51119995 696.26147461 C219.75557449 696.35559666 217.11293135 696.59485862 214.37796021 696.90779114 C209.46607186 697.42261939 204.78843428 697.27810466 199.87109375 696.94799805 C189.94550123 696.40004159 180.03535718 696.25555279 170.09765625 696.22973633 C169.32085699 696.22765494 168.54405773 696.22557355 167.7437191 696.22342908 C162.77773379 696.21193098 157.81176528 696.20850975 152.84576797 696.20774293 C150.22541346 696.20702451 147.60506395 696.2048759 144.98471069 696.20224571 C135.82248612 696.19306127 126.66027591 696.18890358 117.49804688 696.18969727 C108.98280295 696.19030176 100.46762159 696.17965998 91.95239353 696.1639536 C84.60244482 696.15088327 77.25251666 696.14551289 69.90255642 696.14615268 C65.52861237 696.14640706 61.1547246 696.14358612 56.78079224 696.13297462 C52.68313355 696.12329792 48.58558524 696.12321142 44.48792267 696.13049126 C42.98751921 696.13153641 41.48710886 696.12917833 39.98671722 696.1231308 C37.9360836 696.11540049 35.88583064 696.12006157 33.83520508 696.12776184 C32.1165197 696.12694469 32.1165197 696.12694469 30.3631134 696.12611103 C26.89585228 696.39785791 22.76437797 696.79812203 20.1875 699.375 C20.1875 702.015 20.1875 704.655 20.1875 707.375 C100.8725 707.87 100.8725 707.87 183.1875 708.375 C183.1875 808.28494371 183.1875 808.28494371 157.10546875 834.46484375 C132.37364808 857.63658668 98.18429487 867.3506658 66.1875 875.375 C65.11193848 875.65657959 65.11193848 875.65657959 64.01464844 875.94384766 C57.59531737 877.45861766 50.74166453 877.72190361 44.1875 878.375 C42.79096191 878.51687744 42.79096191 878.51687744 41.36621094 878.66162109 C-22.14317593 884.9485167 -97.23758366 878.19171173 -148.390625 836.26171875 C-163.72826142 823.01771675 -174.0859206 806.17638026 -176.18554688 785.74487305 C-176.89589819 773.32708348 -176.96696477 760.9359034 -176.9375 748.5 C-176.9359491 747.33521118 -176.93439819 746.17042236 -176.93280029 744.97033691 C-176.89662745 721.07797843 -176.71413147 697.18564493 -176.49310303 673.29437256 C-176.4553176 669.19596454 -176.4215417 665.097554 -176.39117432 660.99908447 C-176.35442619 656.10375414 -176.30799602 651.20860271 -176.25456238 646.31342697 C-176.23618735 644.49786687 -176.22093633 642.6822719 -176.2091217 640.86665726 C-176.02191452 613.19388834 -169.98940457 586.41688894 -150.8125 565.375 C-150.1525 565.375 -149.4925 565.375 -148.8125 565.375 C-148.8125 564.715 -148.8125 564.055 -148.8125 563.375 C-147.33545788 562.12272516 -145.85422601 560.87333478 -144.3203125 559.69140625 C-142.54487056 558.25735909 -142.54487056 558.25735909 -140.8125 555.375 C-140.1525 555.375 -139.4925 555.375 -138.8125 555.375 C-137.20599087 554.36944428 -135.62724012 553.3193934 -134.0625 552.25 C-119.32755367 542.7652166 -101.3989709 537.07178498 -83.8125 537.375 C-83.4825 536.715 -83.1525 536.055 -82.8125 535.375 C-44.8625 535.705 -6.9125 536.035 32.1875 536.375 C32.1875 535.715 32.1875 535.055 32.1875 534.375 C32.8475 534.705 33.5075 535.035 34.1875 535.375 C37.02524459 535.47443832 39.83784683 535.51478544 42.67578125 535.5078125 C43.95705147 535.50924759 43.95705147 535.50924759 45.26420593 535.51071167 C47.08084181 535.51139354 48.8974801 535.50953878 50.71411133 535.50537109 C53.45074201 535.50009497 56.18720307 535.50527788 58.92382812 535.51171875 C75.25356345 536.57057085 75.25356345 536.57057085 90.1875 532.375 C92.0625 532.1015625 92.0625 532.1015625 94.1875 532 C99.04261396 531.57090646 103.18951739 530.08560789 107.70703125 528.3125 C110.1875 527.375 110.1875 527.375 112.44921875 526.875 C113.02285156 526.71 113.59648438 526.545 114.1875 526.375 C114.5175 525.715 114.8475 525.055 115.1875 524.375 C116.61091735 523.30601924 118.07582034 522.29159162 119.5625 521.3125 C120.35398437 520.78527344 121.14546875 520.25804687 121.9609375 519.71484375 C124.1875 518.375 124.1875 518.375 127.1875 517.375 C127.1875 516.715 127.1875 516.055 127.1875 515.375 C128.363125 514.446875 128.363125 514.446875 129.5625 513.5 C132.04979156 511.48647826 133.04288266 510.28857141 134.1875 507.375 C134.8475 507.375 135.5075 507.375 136.1875 507.375 C136.5175 506.055 136.8475 504.735 137.1875 503.375 C136.16269531 503.92929687 135.13789062 504.48359375 134.08203125 505.0546875 C132.72142909 505.78659763 131.36074782 506.51836071 130 507.25 C128.98969727 507.79720703 128.98969727 507.79720703 127.95898438 508.35546875 C124.42765799 510.25032681 120.94358886 511.95618541 117.1875 513.375 C116.506875 513.725625 115.82625 514.07625 115.125 514.4375 C112.05908805 515.92100578 109.59354737 516.375 106.1875 516.375 C103.83197436 516.53341551 101.4768185 516.69734795 99.12187195 516.864151 C90.15740217 517.45409662 81.21846253 517.53418541 72.23754883 517.54858398 C70.50260763 517.55490921 68.76766801 517.56167709 67.0327301 517.56884766 C63.33125456 517.58337659 59.62978468 517.59515663 55.92829323 517.60479546 C50.06355081 517.62041196 44.19885966 517.64435612 38.33415222 517.66969299 C21.66917167 517.74047486 5.00416356 517.80069671 -11.66088867 517.85180664 C-20.89136494 517.88018827 -30.12178828 517.91559916 -39.35220891 517.95846039 C-45.1708506 517.98506643 -50.9894327 518.00307182 -56.80812299 518.01449764 C-60.43723278 518.0236818 -64.06627028 518.04106865 -67.6953373 518.06067657 C-69.3653257 518.06809064 -71.03533272 518.07222938 -72.70533752 518.07267189 C-81.30364914 518.07678689 -89.60808761 518.37989936 -98.09787464 519.94815159 C-100.7208568 520.36059 -103.16273425 520.45082269 -105.8125 520.375 C-105.4825 521.695 -105.1525 523.015 -104.8125 524.375 C-108.15502724 524.44927838 -110.6160914 524.44046953 -113.8125 523.375 C-116.88057043 524.28948117 -116.88057043 524.28948117 -120.1875 525.6875 C-121.30898438 526.13738281 -122.43046875 526.58726562 -123.5859375 527.05078125 C-125.18308594 527.70626953 -125.18308594 527.70626953 -126.8125 528.375 C-128.47870416 529.04282177 -130.14518812 529.70994863 -131.8125 530.375 C-131.8125 531.035 -131.8125 531.695 -131.8125 532.375 C-132.89144531 532.5296875 -132.89144531 532.5296875 -133.9921875 532.6875 C-149.35819194 536.43322961 -163.81680877 552.81948599 -172.0703125 565.828125 C-174.14816859 569.26703486 -175.99966344 572.7892572 -177.8125 576.375 C-178.35648438 577.45007813 -178.90046875 578.52515625 -179.4609375 579.6328125 C-187.2923478 596.44848031 -190.00201759 614.6284579 -189.88766479 633.02989197 C-189.87469163 635.14400234 -189.86833165 637.25804853 -189.86352539 639.37219238 C-189.85027762 644.62723103 -189.82622692 649.88220886 -189.80212402 655.13720703 C-189.77893869 660.2893796 -189.76044141 665.44153494 -189.75 670.59375 C-189.74847931 671.29969299 -189.74695862 672.00563599 -189.74539185 672.73297119 C-189.73101276 682.97888536 -189.9333327 693.16252986 -190.8125 703.375 C-191.79041504 703.46128662 -192.76833008 703.54757324 -193.77587891 703.63647461 C-194.90171387 703.73581299 -196.02754883 703.83515137 -197.1875 703.9375 C-203.5625 704.5 -203.5625 704.5 -205.8125 703.375 C-206.1425 704.035 -206.4725 704.695 -206.8125 705.375 C-206.8125 704.715 -206.8125 704.055 -206.8125 703.375 C-212.7525 703.705 -218.6925 704.035 -224.8125 704.375 C-224.8125 704.705 -224.8125 705.035 -224.8125 705.375 C-231.4375 705.625 -231.4375 705.625 -234.8125 703.375 C-235.1425 704.365 -235.4725 705.355 -235.8125 706.375 C-239.15623475 705.81771087 -241.84562999 705.02326111 -244.8125 703.375 C-244.8125 704.035 -244.8125 704.695 -244.8125 705.375 C-248.1875 706 -248.1875 706 -251.8125 706.375 C-252.4725 705.715 -253.1325 705.055 -253.8125 704.375 C-256.38311311 703.72732207 -256.38311311 703.72732207 -258.8125 703.375 C-259.1425 704.035 -259.4725 704.695 -259.8125 705.375 C-259.8125 704.715 -259.8125 704.055 -259.8125 703.375 C-260.91464844 703.40980469 -262.01679688 703.44460938 -263.15234375 703.48046875 C-287.1738359 704.00644785 -309.54925689 698.64497339 -327.6328125 681.6875 C-352.2764479 655.54228108 -370.89683657 611.25219638 -370.9375 575.125 C-370.89625 574.2175 -370.855 573.31 -370.8125 572.375 C-371.4725 572.045 -372.1325 571.715 -372.8125 571.375 C-372.79509766 570.45267578 -372.79509766 570.45267578 -372.77734375 569.51171875 C-372.76832031 568.70347656 -372.75929688 567.89523437 -372.75 567.0625 C-372.73839844 566.26199219 -372.72679687 565.46148438 -372.71484375 564.63671875 C-372.71592145 562.20638666 -372.71592145 562.20638666 -373.8125 559.375 C-373.92220444 556.66834257 -373.97622304 553.9883402 -373.98046875 551.28125 C-373.98470352 550.47079727 -373.98893829 549.66034454 -373.99330139 548.82533264 C-374.00324811 546.17516995 -374.0032087 543.52517821 -374 540.875 C-373.99939575 539.97063202 -373.9987915 539.06626404 -373.99816895 538.13449097 C-373.94287435 507.68773653 -370.95015969 478.22787946 -363.37402344 448.6796875 C-362.60160152 445.50939928 -361.97408303 442.31220033 -361.36181641 439.10742188 C-361.18054199 438.53572266 -360.99926758 437.96402344 -360.8125 437.375 C-360.1525 437.045 -359.4925 436.715 -358.8125 436.375 C-358.18598802 434.56614907 -358.18598802 434.56614907 -357.6875 432.3125 C-353.44093996 417.3961911 -344.3822652 403.92305507 -334.84375 391.8984375 C-333.62564453 390.40557303 -333.62564453 390.40557303 -333.8125 388.375 C-332.16343818 387.34622749 -330.49212987 386.35307018 -328.8125 385.375 C-326.82056741 383.8077573 -324.84249467 382.22281409 -322.875 380.625 C-314.69117923 374.15853713 -305.79487595 369.50672579 -295.8125 366.375 C-295.8125 365.715 -295.8125 365.055 -295.8125 364.375 C-294.66394531 364.39433594 -293.51539063 364.41367187 -292.33203125 364.43359375 C-287.99610405 364.43263849 -283.79336931 364.00913841 -279.5 363.4375 C-278.79810547 363.35048828 -278.09621094 363.26347656 -277.37304688 363.17382812 C-274.38586394 362.78939562 -271.67760468 362.33003489 -268.8125 361.375 C-266.5286483 361.29121372 -264.242399 361.26770085 -261.95703125 361.27734375 C-260.96457649 361.27946617 -260.96457649 361.27946617 -259.95207214 361.28163147 C-257.84300172 361.28722004 -255.73403823 361.29977035 -253.625 361.3125 C-252.19336091 361.31751648 -250.76172015 361.32207913 -249.33007812 361.32617188 C-245.82418412 361.3371857 -242.3183525 361.35444245 -238.8125 361.375 C-239.15694881 358.90233235 -239.15694881 358.90233235 -239.8125 356.375 C-240.4725 356.045 -241.1325 355.715 -241.8125 355.375 C-242.7421875 353.07763672 -242.7421875 353.07763672 -243.6875 350.0546875 C-244.03296875 348.9615625 -244.3784375 347.8684375 -244.734375 346.7421875 C-245.26804687 345.01355469 -245.26804687 345.01355469 -245.8125 343.25 C-246.16828125 342.12078125 -246.5240625 340.9915625 -246.890625 339.828125 C-248.60544222 334.36374475 -250.27717719 328.89256634 -251.8125 323.375 C-252.4725 323.375 -253.1325 323.375 -253.8125 323.375 C-253.77382813 322.09496094 -253.73515625 320.81492187 -253.6953125 319.49609375 C-253.69733917 314.29868626 -254.6265174 309.50710688 -255.6875 304.4375 C-261.82836726 272.86401978 -261.14833575 240.42650885 -255.13378906 208.91113281 C-254.42351788 205.16106207 -253.81168096 201.73824592 -253.8203125 197.91015625 C-253.8125 195.375 -253.8125 195.375 -251.8125 192.375 C-251.22047904 190.64360795 -250.68430849 188.89278182 -250.18359375 187.1328125 C-249.72170654 185.54932007 -249.72170654 185.54932007 -249.25048828 183.93383789 C-248.92032715 182.80067139 -248.59016602 181.66750488 -248.25 180.5 C-242.94264335 162.83847254 -235.75596671 146.57230793 -226.9765625 130.37890625 C-223.3877191 124.66253598 -223.3877191 124.66253598 -221.8125 118.375 C-220.8225 118.045 -219.8325 117.715 -218.8125 117.375 C-217.39695141 115.58557204 -217.39695141 115.58557204 -216.1875 113.4375 C-215.54941406 112.37208984 -215.54941406 112.37208984 -214.8984375 111.28515625 C-214.16834537 110.00092944 -213.47314711 108.69629422 -212.8125 107.375 C-212.11125 106.694375 -211.41 106.01375 -210.6875 105.3125 C-208.44979034 103.12564738 -206.57013825 100.81061615 -204.6875 98.3125 C-201.29468673 93.86546466 -197.60291803 89.778863 -193.79711914 85.68847656 C-191.32980916 83.03589473 -188.92608642 80.36026901 -186.625 77.5625 C-184.00249408 74.46181637 -181.07864988 71.86143533 -177.984375 69.23828125 C-175.70130599 67.27960514 -173.51383397 65.23739992 -171.3125 63.1875 C-134.93806975 30.52248653 -87.90342174 9.81152869 -39.8125 2.375 C-38.70382568 2.19694824 -37.59515137 2.01889648 -36.45288086 1.83544922 C-24.31832245 0.08552063 -12.24390501 -0.01680589 0 0 Z M139.1875 500.375 C138.1975 501.86 138.1975 501.86 137.1875 503.375 C138.5075 502.715 139.8275 502.055 141.1875 501.375 C140.5275 501.045 139.8675 500.715 139.1875 500.375 Z " fill="#E84644" transform="translate(509.8125,59.625)"/>
<path d="M0 0 C1.14570465 0.00141495 2.2914093 0.0028299 3.47183228 0.00428772 C7.11926928 0.00987045 10.76664415 0.02241984 14.4140625 0.03515625 C16.89192619 0.04017348 19.36979085 0.044736 21.84765625 0.04882812 C27.91147941 0.05983424 33.97526652 0.07655522 40.0390625 0.09765625 C40.0390625 0.42765625 40.0390625 0.75765625 40.0390625 1.09765625 C40.95945312 1.30519531 41.87984375 1.51273437 42.828125 1.7265625 C59.84673943 5.86856744 76.47209387 13.7963538 86.6640625 28.72265625 C88.04775619 30.74091011 89.29641232 32.35500607 91.0390625 34.09765625 C103.43642748 53.76244208 117.0390625 81.57111904 117.0390625 105.09765625 C118.0290625 105.09765625 119.0190625 105.09765625 120.0390625 105.09765625 C119.84699219 105.9071875 119.65492188 106.71671875 119.45703125 107.55078125 C118.94315003 111.91156764 119.58684762 115.55520558 120.3515625 119.84765625 C124.91033488 148.47548991 124.26986882 177.1955756 124.0390625 206.09765625 C123.3790625 206.09765625 122.7190625 206.09765625 122.0390625 206.09765625 C122.06355469 207.4021875 122.08804688 208.70671875 122.11328125 210.05078125 C122.10869849 214.74719404 121.61741107 219.22024006 120.8515625 223.84765625 C120.7184668 224.65984619 120.58537109 225.47203613 120.44824219 226.30883789 C115.33029222 256.30380303 106.07634689 285.61382379 86.0390625 309.09765625 C85.40871094 309.90074219 84.77835938 310.70382812 84.12890625 311.53125 C70.47272419 328.26079788 49.36345328 337.04759496 28.33963013 339.3996582 C20.71972052 340.07478241 13.1777813 340.21414209 5.53125 340.16015625 C4.2845755 340.15636963 3.037901 340.15258301 1.75344849 340.14868164 C-2.19305049 340.13656984 -6.13947264 340.11794656 -10.0859375 340.09765625 C-15.29687322 340.07093677 -20.50777113 340.05100829 -25.71875 340.03515625 C-26.89817169 340.02685791 -28.07759338 340.01855957 -29.29275513 340.01000977 C-30.97532913 340.00505493 -30.97532913 340.00505493 -32.69189453 340 C-33.66385773 339.99476318 -34.63582092 339.98952637 -35.63723755 339.98413086 C-38.39286301 340.07825291 -41.03550615 340.31751487 -43.77047729 340.63044739 C-48.68236564 341.14527564 -53.36000322 341.00076091 -58.27734375 340.6706543 C-68.20293627 340.12269784 -78.11308032 339.97820904 -88.05078125 339.95239258 C-88.82758051 339.95031119 -89.60437977 339.9482298 -90.4047184 339.94608533 C-95.37070371 339.93458723 -100.33667222 339.931166 -105.30266953 339.93039918 C-107.92302404 339.92968076 -110.54337355 339.92753215 -113.16372681 339.92490196 C-122.32595138 339.91571752 -131.48816159 339.91155983 -140.65039062 339.91235352 C-149.16563455 339.91295801 -157.68081591 339.90231623 -166.19604397 339.88660985 C-173.54599268 339.87353952 -180.89592084 339.86816914 -188.24588108 339.86880893 C-192.61982513 339.86906331 -196.9937129 339.86624237 -201.36764526 339.85563087 C-205.46530395 339.84595417 -209.56285226 339.84586767 -213.66051483 339.85314751 C-215.16091829 339.85419266 -216.66132864 339.85183458 -218.16172028 339.84578705 C-220.2123539 339.83805674 -222.26260686 339.84271782 -224.31323242 339.85041809 C-225.45902267 339.84987332 -226.60481293 339.84932856 -227.7853241 339.84876728 C-231.25258522 340.12051416 -235.38405953 340.52077828 -237.9609375 343.09765625 C-237.9609375 345.73765625 -237.9609375 348.37765625 -237.9609375 351.09765625 C-157.2759375 351.59265625 -157.2759375 351.59265625 -74.9609375 352.09765625 C-74.9609375 452.00759996 -74.9609375 452.00759996 -101.04296875 478.1875 C-125.77478942 501.35924293 -159.96414263 511.07332205 -191.9609375 519.09765625 C-193.03649902 519.37923584 -193.03649902 519.37923584 -194.13378906 519.66650391 C-200.55312013 521.18127391 -207.40677297 521.44455986 -213.9609375 522.09765625 C-215.35747559 522.23953369 -215.35747559 522.23953369 -216.78222656 522.38427734 C-280.29161343 528.67117295 -355.38602116 521.91436798 -406.5390625 479.984375 C-421.87669892 466.740373 -432.2343581 449.89903651 -434.33398438 429.4675293 C-435.04433569 417.04973973 -435.11540227 404.65855965 -435.0859375 392.22265625 C-435.0843866 391.05786743 -435.08283569 389.89307861 -435.08123779 388.69299316 C-435.04506495 364.80063468 -434.86256897 340.90830118 -434.64154053 317.01702881 C-434.6037551 312.91862079 -434.5699792 308.82021025 -434.53961182 304.72174072 C-434.50286369 299.82641039 -434.45643352 294.93125896 -434.40299988 290.03608322 C-434.38462485 288.22052312 -434.36937383 286.40492815 -434.3575592 284.58931351 C-434.17035202 256.91654459 -428.13784207 230.13954519 -408.9609375 209.09765625 C-408.3009375 209.09765625 -407.6409375 209.09765625 -406.9609375 209.09765625 C-406.9609375 208.43765625 -406.9609375 207.77765625 -406.9609375 207.09765625 C-405.48389538 205.84538141 -404.00266351 204.59599103 -402.46875 203.4140625 C-400.69330806 201.98001534 -400.69330806 201.98001534 -398.9609375 199.09765625 C-398.3009375 199.09765625 -397.6409375 199.09765625 -396.9609375 199.09765625 C-395.35442837 198.09210053 -393.77567762 197.04204965 -392.2109375 195.97265625 C-377.47599117 186.48787285 -359.5474084 180.79444123 -341.9609375 181.09765625 C-341.6309375 180.43765625 -341.3009375 179.77765625 -340.9609375 179.09765625 C-303.0109375 179.42765625 -265.0609375 179.75765625 -225.9609375 180.09765625 C-225.9609375 179.43765625 -225.9609375 178.77765625 -225.9609375 178.09765625 C-225.3009375 178.42765625 -224.6409375 178.75765625 -223.9609375 179.09765625 C-221.12319291 179.19709457 -218.31059067 179.23744169 -215.47265625 179.23046875 C-214.6184761 179.23142548 -213.76429596 179.2323822 -212.88423157 179.23336792 C-211.06759569 179.23404979 -209.2509574 179.23219503 -207.43432617 179.22802734 C-204.69769549 179.22275122 -201.96123443 179.22793413 -199.22460938 179.234375 C-182.89487405 180.2932271 -182.89487405 180.2932271 -167.9609375 176.09765625 C-166.0859375 175.82421875 -166.0859375 175.82421875 -163.9609375 175.72265625 C-159.10582354 175.29356271 -154.95892011 173.80826414 -150.44140625 172.03515625 C-147.9609375 171.09765625 -147.9609375 171.09765625 -145.69921875 170.59765625 C-145.12558594 170.43265625 -144.55195312 170.26765625 -143.9609375 170.09765625 C-143.6309375 169.43765625 -143.3009375 168.77765625 -142.9609375 168.09765625 C-141.53752015 167.02867549 -140.07261716 166.01424787 -138.5859375 165.03515625 C-137.79445313 164.50792969 -137.00296875 163.98070312 -136.1875 163.4375 C-133.9609375 162.09765625 -133.9609375 162.09765625 -130.9609375 161.09765625 C-130.9609375 160.43765625 -130.9609375 159.77765625 -130.9609375 159.09765625 C-130.1771875 158.47890625 -129.3934375 157.86015625 -128.5859375 157.22265625 C-126.09864594 155.20913451 -125.10555484 154.01122766 -123.9609375 151.09765625 C-123.3009375 151.09765625 -122.6409375 151.09765625 -121.9609375 151.09765625 C-121.8784375 150.52015625 -121.7959375 149.94265625 -121.7109375 149.34765625 C-120.74634266 146.45387174 -119.12444017 145.23789545 -116.9609375 143.09765625 C-115.7370199 141.52633846 -114.52935364 139.94226335 -113.3359375 138.34765625 C-109.73141979 133.76931012 -105.80605565 130.28260381 -101.16015625 126.7890625 C-98.96580483 125.18621732 -98.96580483 125.18621732 -97.29296875 123.375 C-95.9609375 122.09765625 -95.9609375 122.09765625 -93.9609375 122.09765625 C-93.75339844 121.55882812 -93.54585937 121.02 -93.33203125 120.46484375 C-91.42837032 117.17818129 -88.75224851 114.81498749 -86.0234375 112.22265625 C-79.84228326 106.18887636 -74.46355609 99.80309477 -69.29931641 92.88916016 C-67.96227882 91.09945169 -66.60883767 89.32305894 -65.25390625 87.546875 C-46.76556878 63.07574996 -28.5009408 33.84302744 -19.49609375 4.40234375 C-18.73619141 2.76652344 -18.73619141 2.76652344 -17.9609375 1.09765625 C-12.26074542 -0.602505 -5.89952482 -0.0275192 0 0 Z " fill="#FACB43" transform="translate(767.9609375,415.90234375)"/>
<path d="M0 0 C0.72963959 0.02361099 1.45927917 0.04722198 2.21102905 0.07154846 C4.54452889 0.14820379 6.87769839 0.23221968 9.2109375 0.31640625 C10.79165043 0.3696251 12.37237955 0.42236551 13.953125 0.47460938 C17.83093888 0.60382138 21.70847236 0.73963584 25.5859375 0.87890625 C25.83649902 1.38115723 26.08706055 1.8834082 26.34521484 2.40087891 C39.44919917 28.472162 55.88822755 50.4114258 82.5859375 63.87890625 C83.22047852 64.20020508 83.85501953 64.52150391 84.50878906 64.85253906 C98.52635534 71.80195533 114.11503242 76.7381889 129.640625 71.93359375 C140.01279182 67.94835917 147.88279096 61.65908153 155.9140625 54.14916992 C172.83088609 38.4295452 189.18679683 30.38889546 212.54370117 30.49072266 C214.12525798 30.4866492 215.70681194 30.481303 217.2883606 30.47479248 C221.55524831 30.46119942 225.82191663 30.46638566 230.08880782 30.47592974 C234.57762817 30.48357479 239.06643091 30.47646675 243.55525208 30.47177124 C251.09619482 30.4663249 258.63704921 30.47347283 266.17797852 30.48779297 C274.85813895 30.50408766 283.53808759 30.49884961 292.21824282 30.48231375 C299.70402132 30.46863128 307.1897366 30.46681292 314.67552358 30.47462976 C319.13156394 30.47927316 323.58750531 30.48002473 328.04353905 30.47002029 C332.24046053 30.46125492 336.43711355 30.46754407 340.6340065 30.48470306 C342.16083267 30.48861875 343.68768205 30.48762013 345.21449852 30.48091507 C367.2236474 30.39328988 387.28532049 34.90803666 403.98046875 50.05078125 C415.6236194 61.87244699 421.45722207 77.78831677 422.0234375 94.19140625 C421.63537996 111.26593786 415.65949005 126.65490445 403.5859375 138.87890625 C396.36665954 144.60605381 387.95707242 148.16988488 379.5859375 151.87890625 C378.8434375 152.25144531 378.1009375 152.62398437 377.3359375 153.0078125 C374.36314746 154.48757183 371.90051358 154.87890625 368.5859375 154.87890625 C366.23041186 155.03732176 363.875256 155.2012542 361.52030945 155.36805725 C352.55583967 155.95800287 343.61690003 156.03809166 334.63598633 156.05249023 C332.90104513 156.05881546 331.16610551 156.06558334 329.4311676 156.07275391 C325.72969206 156.08728284 322.02822218 156.09906288 318.32673073 156.10870171 C312.46198831 156.12431821 306.59729716 156.14826237 300.73258972 156.17359924 C284.06760917 156.24438111 267.40260106 156.30460296 250.73754883 156.35571289 C241.50707256 156.38409452 232.27664922 156.41950541 223.04622859 156.46236664 C217.2275869 156.48897268 211.4090048 156.50697807 205.59031451 156.51840389 C201.96120472 156.52758805 198.33216722 156.5449749 194.7031002 156.56458282 C193.0331118 156.57199689 191.36310478 156.57613563 189.69309998 156.57657814 C181.09478836 156.58069314 172.79034989 156.88380561 164.30056286 158.45205784 C161.6775807 158.86449625 159.23570325 158.95472894 156.5859375 158.87890625 C156.9159375 160.19890625 157.2459375 161.51890625 157.5859375 162.87890625 C154.24341026 162.95318463 151.7823461 162.94437578 148.5859375 161.87890625 C145.51786707 162.79338742 145.51786707 162.79338742 142.2109375 164.19140625 C140.52871094 164.86623047 140.52871094 164.86623047 138.8125 165.5546875 C137.74773437 165.99167969 136.68296875 166.42867187 135.5859375 166.87890625 C133.91973334 167.54672802 132.25324938 168.21385488 130.5859375 168.87890625 C130.5859375 169.53890625 130.5859375 170.19890625 130.5859375 170.87890625 C129.86664063 170.98203125 129.14734375 171.08515625 128.40625 171.19140625 C113.04024556 174.93713586 98.58162873 191.32339224 90.328125 204.33203125 C88.25026891 207.77094111 86.39877406 211.29316345 84.5859375 214.87890625 C84.04195312 215.95398438 83.49796875 217.0290625 82.9375 218.13671875 C75.1060897 234.95238656 72.39641991 253.13236415 72.51077271 271.53379822 C72.52374587 273.64790859 72.53010585 275.76195478 72.53491211 277.87609863 C72.54815988 283.13113728 72.57221058 288.38611511 72.59631348 293.64111328 C72.61949881 298.79328585 72.63799609 303.94544119 72.6484375 309.09765625 C72.64995819 309.80359924 72.65147888 310.50954224 72.65304565 311.23687744 C72.66742474 321.48279161 72.4651048 331.66643611 71.5859375 341.87890625 C70.60802246 341.96519287 69.63010742 342.05147949 68.62255859 342.14038086 C67.49672363 342.23971924 66.37088867 342.33905762 65.2109375 342.44140625 C58.8359375 343.00390625 58.8359375 343.00390625 56.5859375 341.87890625 C56.2559375 342.53890625 55.9259375 343.19890625 55.5859375 343.87890625 C55.5859375 343.21890625 55.5859375 342.55890625 55.5859375 341.87890625 C49.6459375 342.20890625 43.7059375 342.53890625 37.5859375 342.87890625 C37.5859375 343.20890625 37.5859375 343.53890625 37.5859375 343.87890625 C30.9609375 344.12890625 30.9609375 344.12890625 27.5859375 341.87890625 C27.2559375 342.86890625 26.9259375 343.85890625 26.5859375 344.87890625 C23.24220275 344.32161712 20.55280751 343.52716736 17.5859375 341.87890625 C17.5859375 342.53890625 17.5859375 343.19890625 17.5859375 343.87890625 C14.2109375 344.50390625 14.2109375 344.50390625 10.5859375 344.87890625 C9.9259375 344.21890625 9.2659375 343.55890625 8.5859375 342.87890625 C6.01532439 342.23122832 6.01532439 342.23122832 3.5859375 341.87890625 C3.2559375 342.53890625 2.9259375 343.19890625 2.5859375 343.87890625 C2.5859375 343.21890625 2.5859375 342.55890625 2.5859375 341.87890625 C1.48378906 341.91371094 0.38164062 341.94851563 -0.75390625 341.984375 C-24.7753984 342.5103541 -47.15081939 337.14887964 -65.234375 320.19140625 C-89.8780104 294.04618733 -108.49839907 249.75610263 -108.5390625 213.62890625 C-108.4978125 212.72140625 -108.4565625 211.81390625 -108.4140625 210.87890625 C-109.0740625 210.54890625 -109.7340625 210.21890625 -110.4140625 209.87890625 C-110.40246094 209.26402344 -110.39085937 208.64914062 -110.37890625 208.015625 C-110.36988281 207.20738281 -110.36085937 206.39914062 -110.3515625 205.56640625 C-110.33996094 204.76589844 -110.32835937 203.96539063 -110.31640625 203.140625 C-110.31748395 200.71029291 -110.31748395 200.71029291 -111.4140625 197.87890625 C-111.52376694 195.17224882 -111.57778554 192.49224645 -111.58203125 189.78515625 C-111.58626602 188.97470352 -111.59050079 188.16425079 -111.59486389 187.32923889 C-111.60481061 184.6790762 -111.6047712 182.02908446 -111.6015625 179.37890625 C-111.60095825 178.47453827 -111.600354 177.57017029 -111.59973145 176.63839722 C-111.54443685 146.19164278 -108.55172219 116.73178571 -100.97558594 87.18359375 C-100.20316402 84.01330553 -99.57564553 80.81610658 -98.96337891 77.61132812 C-98.69146729 76.7537793 -98.69146729 76.7537793 -98.4140625 75.87890625 C-97.4240625 75.38390625 -97.4240625 75.38390625 -96.4140625 74.87890625 C-95.78755052 73.07005532 -95.78755052 73.07005532 -95.2890625 70.81640625 C-91.04250246 55.90009735 -81.9838277 42.42696132 -72.4453125 30.40234375 C-71.22720703 28.90947928 -71.22720703 28.90947928 -71.4140625 26.87890625 C-69.76500068 25.85013374 -68.09369237 24.85697643 -66.4140625 23.87890625 C-64.42212991 22.31166355 -62.44405717 20.72672034 -60.4765625 19.12890625 C-52.29274173 12.66244338 -43.39643845 8.01063204 -33.4140625 4.87890625 C-33.4140625 4.21890625 -33.4140625 3.55890625 -33.4140625 2.87890625 C-31.69316406 2.90791016 -31.69316406 2.90791016 -29.9375 2.9375 C-25.58034083 2.93653985 -21.35403134 2.51214791 -17.0390625 1.94140625 C-16.32878906 1.85439453 -15.61851562 1.76738281 -14.88671875 1.67773438 C-1.37890396 -0.05239371 -1.37890396 -0.05239371 0 0 Z " fill="#366990" transform="translate(247.4140625,421.12109375)"/>
<path d="M0 0 C5.94470129 4.78098531 9.16821423 11.05035336 12.77099609 17.65258789 C13.45951792 18.89035778 14.14948715 20.12732352 14.84082031 21.36352539 C16.28072072 23.94035905 17.71430626 26.52056866 19.14453125 29.1027832 C21.29986015 32.98182125 23.50285325 36.83218476 25.72021484 40.67602539 C26.0774614 41.29611481 26.43470795 41.91620422 26.80278015 42.55508423 C28.5094735 45.51666265 30.21828453 48.47699517 31.92895508 51.4362793 C42.19999477 69.33894809 48.87787817 83.73470991 43.49755859 104.65258789 C39.92085133 115.02263848 33.59397855 124.39286152 27.92724609 133.72290039 C24.79617888 138.89457665 21.75258771 144.11689014 18.70849609 149.34008789 C18.11544678 150.35756104 17.52239746 151.37503418 16.91137695 152.42333984 C12.50905907 159.98701835 8.13739322 167.56813411 3.77099609 175.15258789 C-1.36740733 184.07690511 -6.55760337 192.9678075 -11.81420898 201.82299805 C-15.27709988 207.6602149 -18.69806521 213.52020656 -22.09887695 219.39379883 C-24.93492203 224.28345291 -27.79276039 229.16000339 -30.66650391 234.02758789 C-31.10478516 234.77105469 -31.54306641 235.51452148 -31.99462891 236.28051758 C-42.00881784 253.0981774 -55.60857525 265.15273022 -74.71134949 270.61196899 C-83.09099743 272.53084081 -91.54766383 272.35578436 -100.09228516 272.36352539 C-101.76995453 272.36996334 -103.44762281 272.37669243 -105.12528992 272.38369751 C-108.62253425 272.39560761 -112.1196802 272.39938422 -115.61694336 272.39819336 C-120.09370776 272.3979891 -124.56984495 272.42542823 -129.04646015 272.45973778 C-132.50289306 272.4819737 -135.95917328 272.48603213 -139.41567039 272.48497391 C-141.06667454 272.48732957 -142.71768292 272.4961512 -144.3686161 272.51163864 C-146.67319758 272.5312574 -148.97640175 272.52548092 -151.28100586 272.51342773 C-153.24430595 272.51770279 -153.24430595 272.51770279 -155.24726868 272.52206421 C-159.21736975 271.94792384 -160.85662003 270.83272521 -163.66650391 268.02758789 C-165.07183971 265.02059637 -165.0693289 262.29875095 -164.66650391 259.02758789 C-163.13584556 254.95939796 -160.97895553 251.36158474 -158.72900391 247.65258789 C-158.09800781 246.57041992 -157.46701172 245.48825195 -156.81689453 244.37329102 C-155.13035816 241.4917799 -153.42473442 238.62379639 -151.70587158 235.76159668 C-150.01328438 232.93780184 -148.33904495 230.10317271 -146.66259766 227.26977539 C-144.65821243 223.88530556 -142.65146757 220.50238752 -140.63598633 217.12451172 C-135.54364993 208.57668328 -130.64755418 199.93300129 -125.81713867 191.23510742 C-121.26904488 183.05979082 -116.57978476 174.97447209 -111.84570312 166.90576172 C-107.8873221 160.14883298 -104.00394782 153.35385506 -100.16650391 146.52758789 C-95.14006383 137.58897338 -90.00864336 128.7166645 -84.82666016 119.86743164 C-81.06714178 113.44283246 -77.34844848 106.99693089 -73.66650391 100.52758789 C-69.46401823 93.14514461 -65.20745929 85.79644699 -60.91650391 78.46508789 C-55.8022498 69.72353717 -50.74633631 60.9500357 -45.72900391 52.15258789 C-40.36455584 42.75067909 -34.99792974 33.35012616 -29.60400391 23.96508789 C-28.71177124 22.40588623 -28.71177124 22.40588623 -27.80151367 20.81518555 C-16.99985027 2.04887447 -16.99985027 2.04887447 -12.72900391 -1.22241211 C-8.09315547 -2.35772193 -4.15347739 -2.42357171 0 0 Z " fill="#FEFAEE" transform="translate(517.66650390625,138.972412109375)"/>
<path d="M0 0 C5.76814599 2.27889046 7.9150976 7.29731193 10.8125 12.4375 C11.36945557 13.40252441 11.92641113 14.36754883 12.50024414 15.36181641 C14.34605228 18.56751982 16.17356254 21.78322591 18 25 C19.30392213 27.28038573 20.60862327 29.56032617 21.9140625 31.83984375 C23.93703678 35.37405753 25.95798348 38.90939348 27.97241211 42.44848633 C32.95725435 51.20369285 38.02387456 59.90909157 43.11938477 68.6003418 C47.03954902 75.30503801 50.84007316 82.06668462 54.57543945 88.87573242 C57.69854065 94.53901713 61.03847241 100.0364666 64.50390625 105.49609375 C67.05072989 109.75853226 67.33875151 113.08810313 67 118 C65.17336419 122.23010398 63.05574965 123.93568921 59 126 C56.4493494 126.38031673 56.4493494 126.38031673 53.69361877 126.38768005 C52.64364716 126.39758469 51.59367554 126.40748932 50.5118866 126.41769409 C49.37044693 126.41319244 48.22900726 126.4086908 47.05297852 126.40405273 C45.84268982 126.41091599 44.63240112 126.41777924 43.38543701 126.42485046 C40.07326219 126.44000094 36.76165085 126.44161664 33.44948316 126.43590808 C30.68112282 126.43281382 27.91281325 126.43891132 25.14446014 126.44494683 C18.61180729 126.45898541 12.07928522 126.45743648 5.54663086 126.44604492 C-1.18531364 126.43456501 -7.91685968 126.44863838 -14.64875168 126.4754414 C-20.43576337 126.49761685 -26.22265016 126.50423163 -32.00970131 126.49836498 C-35.46288316 126.49499847 -38.91580963 126.49738967 -42.36895561 126.51461601 C-46.22065658 126.53299262 -50.07186965 126.51887899 -53.92358398 126.50170898 C-55.06299942 126.51137695 -56.20241486 126.52104492 -57.37635803 126.53100586 C-63.54386153 126.47339514 -67.358082 126.2226557 -72 122 C-74.90098659 117.64852012 -74.84363345 114.10533182 -74 109 C-72.23403136 104.73401995 -69.87425618 100.91326142 -67.4375 97 C-66.40287403 95.27525426 -65.36828033 93.55048803 -64.33573914 91.82449341 C-63.26780018 90.04529566 -62.19080353 88.27183607 -61.11230469 86.49902344 C-57.83582677 81.09524378 -54.70634629 75.60659966 -51.5625 70.125 C-50.31533866 67.96340636 -49.06794046 65.80194935 -47.8203125 63.640625 C-44.51995895 57.91138825 -41.23899357 52.17130339 -37.96411133 46.42749023 C-35.960724 42.91410642 -33.95133861 39.40417359 -31.94140625 35.89453125 C-29.96251026 32.43892019 -27.98696334 28.98168563 -26.03076172 25.51318359 C-24.15547831 22.19051163 -22.26637777 18.87602932 -20.375 15.5625 C-19.8193335 14.56782715 -19.26366699 13.5731543 -18.69116211 12.54833984 C-13.94816839 4.29156325 -10.15099364 -1.28901507 0 0 Z " fill="#FEFAEE" transform="translate(600,286)"/>
<path d="M0 0 C0.98790316 -0.00445668 0.98790316 -0.00445668 1.99576396 -0.0090034 C4.19548712 -0.01765199 6.39515561 -0.01919543 8.59489441 -0.02069092 C10.17556371 -0.02532213 11.7562319 -0.0303472 13.3368988 -0.03573608 C17.62886205 -0.04884038 21.92080965 -0.05530221 26.21278977 -0.05974674 C28.90030198 -0.06268309 31.58780998 -0.06678915 34.27532005 -0.07125092 C42.70084545 -0.08492604 51.12636115 -0.09459035 59.55189687 -0.09845281 C69.24482516 -0.1029216 78.9376116 -0.1204144 88.6304968 -0.1494534 C96.14161645 -0.17116603 103.65269649 -0.18116231 111.16384715 -0.18249393 C115.64011801 -0.18353592 120.11625554 -0.1893124 124.59249306 -0.20731354 C128.81392922 -0.22395873 133.03513424 -0.22587123 137.2565918 -0.21717453 C138.79309909 -0.21641262 140.32961965 -0.22063277 141.86609459 -0.23063278 C163.9070578 -0.36548889 183.9928063 4.14702413 200.71281433 19.31231689 C212.35596498 31.13398263 218.18956765 47.04985241 218.75578308 63.45294189 C218.36772554 80.52747351 212.39183563 95.91644009 200.31828308 108.14044189 C193.10698536 113.86125863 184.69590796 117.46366396 176.31828308 121.14044189 C175.32828308 121.63544189 175.32828308 121.63544189 174.31828308 122.14044189 C171.97824138 121.85802307 169.64323586 121.52793402 167.31828308 121.14044189 C170.11232041 118.7829729 172.92755469 116.74347164 176.06828308 114.89044189 C189.4421127 106.57902236 198.22857872 93.73359145 201.90592957 78.44000244 C204.74309323 62.61806961 202.47346409 47.12787965 193.41203308 33.80450439 C183.39303098 21.05644575 170.05584903 14.18944871 154.31828308 11.14044189 C153.57367356 10.96772609 152.82906404 10.79501028 152.0618906 10.61706066 C148.92713661 10.07249203 145.98195019 10.01138726 142.79946899 10.00672913 C140.82101738 10.00033165 140.82101738 10.00033165 138.80259705 9.99380493 C137.34745786 9.99415443 135.89231869 9.99461595 134.43717957 9.99517822 C132.89928099 9.99218479 131.36138317 9.98878184 129.82348633 9.98500061 C125.64955206 9.97617171 121.47563829 9.97382286 117.30169559 9.97318482 C114.68992892 9.97247329 112.07816743 9.97033694 109.46640205 9.96768761 C100.34272558 9.95843542 91.2190637 9.95435226 82.09538269 9.95513916 C73.61185443 9.95573881 65.12838998 9.94520893 56.64487785 9.9293955 C49.3469823 9.91628049 42.04910749 9.91095697 34.75120026 9.91159457 C30.39916844 9.91184854 26.04719327 9.90905365 21.69517326 9.89841652 C17.59525902 9.88866958 13.49545476 9.88870113 9.39553642 9.89593315 C7.89928017 9.89697109 6.40301683 9.89466369 4.90677261 9.88857269 C-12.84773818 9.82103922 -27.75297438 12.53584609 -42.53718567 22.88262939 C-43.24488098 23.29770752 -43.95257629 23.71278564 -44.68171692 24.14044189 C-45.34171692 23.81044189 -46.00171692 23.48044189 -46.68171692 23.14044189 C-33.70072688 10.44560594 -18.77907 0.04747584 0 0 Z " fill="#1E3A64" transform="translate(450.6817169189453,451.85955810546875)"/>
<path d="M0 0 C7.70903081 5.60242712 12.97434603 11.52216951 15 21 C15.62465122 29.90127984 13.85218889 39.04064024 8 46 C1.56986942 52.76625105 -4.6876898 56.0160869 -14.0625 56.375 C-23.5878146 55.99281145 -29.54793778 51.88474489 -36 45 C-41.32923682 37.95940262 -42.99798808 29.64490976 -42 21 C-40.09028533 12.7587481 -35.35404444 6.46627371 -29 1 C-20.1898137 -4.43458233 -9.16896836 -4.91917487 0 0 Z " fill="#F2EEE5" transform="translate(631,813)"/>
<path d="M0 0 C2.97 0 5.94 0 9 0 C9.49628906 1.02738281 9.99257813 2.05476563 10.50390625 3.11328125 C17.20345796 16.84661398 24.84049105 28.5933657 35 40 C35.57234375 40.65742188 36.1446875 41.31484375 36.734375 41.9921875 C52.7309332 59.22559299 76.70763351 70.51996307 99.99609375 71.94921875 C103.7874526 72.01331194 107.2698201 71.65826704 111 71 C110.505 72.485 110.505 72.485 110 74 C96.78937804 80.10506332 80.82138416 79.74638509 67.234375 75.25390625 C36.10250004 63.18466487 17.07406342 36.56325159 4 7 C3.64550781 6.07058594 3.29101562 5.14117187 2.92578125 4.18359375 C2.09550502 1.84550359 2.09550502 1.84550359 0 0 Z " fill="#1D3963" transform="translate(265,423)"/>
<path d="M0 0 C52.8 0 105.6 0 160 0 C160 26.07 160 52.14 160 79 C159.01 79.495 159.01 79.495 158 80 C158 54.26 158 28.52 158 2 C106.19 2 54.38 2 1 2 C0.67 1.34 0.34 0.68 0 0 Z " fill="#FCC333" transform="translate(532,769)"/>
<path d="M0 0 C1.17369141 -0.00412399 2.34738281 -0.00824799 3.55664062 -0.01249695 C5.49009087 0.00368179 5.49009087 0.00368179 7.46260071 0.02018738 C8.83248374 0.02103352 10.20236813 0.02055876 11.57225037 0.01885986 C15.29314728 0.01799797 19.01375496 0.03565483 22.73458457 0.05658174 C26.62232741 0.07531638 30.51007665 0.07709643 34.39785767 0.08065796 C41.76080142 0.0899879 49.12361178 0.11461445 56.48649675 0.14470643 C64.86849201 0.17822098 73.25049359 0.19472902 81.63253915 0.20979273 C98.87585627 0.24116323 116.11904349 0.29394209 133.36225891 0.36076355 C133.36225891 1.02076355 133.36225891 1.68076355 133.36225891 2.36076355 C125.92242731 3.35914291 118.63217221 3.49655182 111.13154602 3.47428894 C109.8330069 3.47443497 108.53446777 3.47458099 107.19657898 3.47473145 C103.66208658 3.47501652 100.12762862 3.46916688 96.59314418 3.46215749 C92.88960241 3.45587547 89.18605971 3.45531633 85.48251343 3.45413208 C78.48106887 3.451033 71.47964005 3.4428389 64.4782024 3.43278259 C56.50233142 3.42157712 48.52645967 3.41609986 40.55058277 3.41108716 C24.15446562 3.400655 7.75836428 3.38308329 -8.63774109 3.36076355 C-6.05746963 0.03896924 -4.09759528 -0.01108457 0 0 Z " fill="#F9BE33" transform="translate(538.6377410888672,752.6392364501953)"/>
<path d="M0 0 C36.96 0 73.92 0 112 0 C112 0.66 112 1.32 112 2 C108.60835573 2.76129971 105.46693544 3.1296993 101.9934082 3.14526367 C101.01226044 3.15156296 100.03111267 3.15786224 99.02023315 3.16435242 C97.42660446 3.1661425 97.42660446 3.1661425 95.80078125 3.16796875 C94.67680939 3.17202225 93.55283752 3.17607574 92.39480591 3.18025208 C88.70067562 3.18977083 85.00664098 3.18963714 81.3125 3.1875 C80.0559964 3.1882251 78.7994928 3.1889502 77.50491333 3.18969727 C51.63571396 3.18805531 25.83382738 2.28698497 0 1 C0 0.67 0 0.34 0 0 Z " fill="#FAC339" transform="translate(680,753)"/>
<path d="M0 0 C0.33 0 0.66 0 1 0 C1.02335852 9.35479536 1.04103322 18.70958041 1.05181217 28.06439877 C1.05699027 32.41004925 1.06399352 36.75567951 1.07543945 41.10131836 C1.08645145 45.30942033 1.09231483 49.51750308 1.09487724 53.72561836 C1.09669901 55.31644556 1.10025463 56.90727193 1.10573006 58.49809074 C1.14159964 69.37019122 0.75546949 80.15375812 0 91 C-1.46687256 91.12942993 -1.46687256 91.12942993 -2.96337891 91.26147461 C-4.08921387 91.36081299 -5.21504883 91.46015137 -6.375 91.5625 C-12.75 92.125 -12.75 92.125 -15 91 C-15.33 91.66 -15.66 92.32 -16 93 C-16 92.34 -16 91.68 -16 91 C-21.94 91.33 -27.88 91.66 -34 92 C-34 92.33 -34 92.66 -34 93 C-40.625 93.25 -40.625 93.25 -44 91 C-44.495 92.485 -44.495 92.485 -45 94 C-48.34373475 93.44271087 -51.03312999 92.64826111 -54 91 C-54 91.66 -54 92.32 -54 93 C-57.375 93.625 -57.375 93.625 -61 94 C-61.66 93.34 -62.32 92.68 -63 92 C-65.57061311 91.35232207 -65.57061311 91.35232207 -68 91 C-68.33 91.66 -68.66 92.32 -69 93 C-69 92.34 -69 91.68 -69 91 C-74.28 91 -79.56 91 -85 91 C-85 90.67 -85 90.34 -85 90 C-57.28 90 -29.56 90 -1 90 C-1.03955136 62.99986789 -1.03955136 62.99986789 -1.09008789 35.99975586 C-1.09460449 30.76281738 -1.09460449 30.76281738 -1.09544373 28.30665588 C-1.09697344 26.60112751 -1.1004783 24.89560018 -1.10557556 23.19007874 C-1.11293138 20.597973 -1.11390477 18.00593302 -1.11352539 15.41381836 C-1.1171235 14.66143104 -1.12072161 13.90904371 -1.12442875 13.13385677 C-1.11567124 8.64189725 -0.73204235 4.41706869 0 0 Z " fill="#838B7A" transform="translate(319,672)"/>
<path d="M0 0 C0.66 0 1.32 0 2 0 C1.50266105 5.32765834 0.15963278 9.41988613 -2.4375 14.125 C-2.78876953 14.77098145 -3.14003906 15.41696289 -3.50195312 16.08251953 C-7.34060339 22.92744259 -12.00110148 28.97238925 -17 35 C-17.65742187 35.82242188 -18.31484375 36.64484375 -18.9921875 37.4921875 C-24.16428387 43.69441095 -30.24097956 48.60143746 -37 53 C-37.66 53 -38.32 53 -39 53 C-37.59127675 49.63512219 -36.00344528 47.94290543 -33.0625 45.8125 C-32.37285156 45.30332031 -31.68320312 44.79414062 -30.97265625 44.26953125 C-29 43 -29 43 -26 42 C-25.31111461 40.6780094 -24.64706119 39.3429572 -24 38 C-22.85024136 36.83645528 -21.65764732 35.71450528 -20.4375 34.625 C-11.71848711 26.11169885 -2.47911619 12.00117611 0 0 Z " fill="#F8C43A" transform="translate(871,690)"/>
<path d="M0 0 C3.0910351 2.57138282 4.04145992 5.34407548 5.4375 9.0625 C10.82676506 22.42972897 19.77569482 34.91175972 30 45 C30.59554687 45.61746094 31.19109375 46.23492188 31.8046875 46.87109375 C39.14107001 53.93983999 49.32196055 59.06680958 59 62 C59 62.33 59 62.66 59 63 C52.77040513 62.55601996 48.48521368 61.15275752 43.125 58 C42.07965088 57.39333496 42.07965088 57.39333496 41.01318359 56.77441406 C23.28429839 46.18227824 11.67627326 28.22038697 3 9.875 C2.69682861 9.2351416 2.39365723 8.5952832 2.08129883 7.93603516 C0.78549623 5.10087236 0 3.15556529 0 0 Z " fill="#386282" transform="translate(155,695)"/>
<path d="M0 0 C0.33 0 0.66 0 1 0 C2.60018367 17.57344563 2.88813072 35.28584822 0.6875 52.8125 C0.51105957 54.26172852 0.51105957 54.26172852 0.33105469 55.74023438 C0.20504883 56.63677734 0.07904297 57.53332031 -0.05078125 58.45703125 C-0.21574097 59.6322937 -0.21574097 59.6322937 -0.3840332 60.83129883 C-1.11039386 63.38867564 -2.30228557 64.97776059 -4 67 C-3.60055217 61.73359569 -3.18736964 56.47899147 -2.5234375 51.23828125 C-0.38253397 34.24435452 -0.34206776 17.10477831 0 0 Z " fill="#ED3E3D" transform="translate(768,300)"/>
<path d="M0 0 C0.33 0 0.66 0 1 0 C1.07725881 4.7127875 1.01599065 9.29220918 0.5234375 13.98046875 C-0.20543042 21.64872634 -0.34301938 29.33363523 -0.51757812 37.03125 C-0.55173828 38.145 -0.58589844 39.25875 -0.62109375 40.40625 C-0.6461499 41.40978516 -0.67120605 42.41332031 -0.69702148 43.44726562 C-1 46 -1 46 -3 49 C-3.43464463 12.24912448 -3.43464463 12.24912448 -1 1 C-0.67 0.67 -0.34 0.34 0 0 Z " fill="#E93B3C" transform="translate(254,276)"/>
<path d="M0 0 C0 0.66 0 1.32 0 2 C-5.56858984 3.57776712 -10.44814458 4.28011594 -16.21875 4.1953125 C-16.96209595 4.1924826 -17.70544189 4.18965271 -18.47131348 4.18673706 C-20.81438217 4.17566157 -23.15704947 4.15058228 -25.5 4.125 C-27.10155693 4.11495381 -28.70311993 4.10583085 -30.3046875 4.09765625 C-34.2032765 4.0757639 -38.10157052 4.04132386 -42 4 C-42.33 3.34 -42.66 2.68 -43 2 C-41.85954224 1.96241577 -41.85954224 1.96241577 -40.69604492 1.92407227 C-37.19307983 1.80678371 -33.69029814 1.68466943 -30.1875 1.5625 C-28.99189453 1.52318359 -27.79628906 1.48386719 -26.56445312 1.44335938 C-20.14750742 1.21605612 -13.78245733 0.8701241 -7.39575195 0.19897461 C-4.91944394 -0.00669043 -2.48365146 -0.0329162 0 0 Z " fill="#FAC437" transform="translate(552,935)"/>
<path d="M0 0 C17.82 0 35.64 0 54 0 C51 3 51 3 47.5 3.3125 C44 3 44 3 41 1 C40.67 1.99 40.34 2.98 40 4 C36.65626525 3.44271087 33.96687001 2.64826111 31 1 C31 1.66 31 2.32 31 3 C27.625 3.625 27.625 3.625 24 4 C23.34 3.34 22.68 2.68 22 2 C19.42938689 1.35232207 19.42938689 1.35232207 17 1 C16.67 1.66 16.34 2.32 16 3 C16 2.34 16 1.68 16 1 C10.72 1 5.44 1 0 1 C0 0.67 0 0.34 0 0 Z " fill="#647D84" transform="translate(234,762)"/>
<path d="M0 0 C0.66 0.33 1.32 0.66 2 1 C-0.31 3.31 -2.62 5.62 -5 8 C-2.525 8.495 -2.525 8.495 0 9 C-3.36603171 11.82746664 -6.94732725 13.3489111 -11 15 C-11.99 15.495 -11.99 15.495 -13 16 C-15.3400417 15.71758117 -17.67504723 15.38749213 -20 15 C-17.16691932 12.60958818 -14.2950902 10.53075461 -11.125 8.625 C-7.04890866 6.13749939 -3.52658943 3.20699226 0 0 Z " fill="#2B4468" transform="translate(638,558)"/>
<path d="M0 0 C0.33 0 0.66 0 1 0 C1.33 14.85 1.66 29.7 2 45 C1.01 45 0.02 45 -1 45 C-1 46.65 -1 48.3 -1 50 C-1.99 50.495 -1.99 50.495 -3 51 C-2.94465088 50.27224365 -2.88930176 49.5444873 -2.83227539 48.79467773 C-1.60619272 32.53664294 -0.58704616 16.29411061 0 0 Z " fill="#FAC236" transform="translate(890,577)"/>
<path d="M0 0 C0.33 0 0.66 0 1 0 C1.33 4.95 1.66 9.9 2 15 C2.33 12.36 2.66 9.72 3 7 C3.33 7 3.66 7 4 7 C4 11.95 4 16.9 4 22 C3.67 22 3.34 22 3 22 C2.97284617 23.74991334 2.95353449 25.49994945 2.9375 27.25 C2.92589844 28.22453125 2.91429687 29.1990625 2.90234375 30.203125 C2.89784985 32.90769303 2.89784985 32.90769303 3.53125 35.09375 C4.35598081 38.4476553 3.50729724 41.61801842 3 45 C2.67 45 2.34 45 2 45 C0.67659949 29.96919708 -0.32730287 15.09229916 0 0 Z " fill="#E2514D" transform="translate(250,307)"/>
<path d="M0 0 C4.47602497 7.15094028 2.33032479 18.54089375 0.625 26.375 C-0.1484375 29.5859375 -0.1484375 29.5859375 -1 32 C-1.99 32.495 -1.99 32.495 -3 33 C-2.85915204 31.20793453 -2.71216299 29.41635083 -2.5625 27.625 C-2.48128906 26.62726562 -2.40007813 25.62953125 -2.31640625 24.6015625 C-2 22 -2 22 -1 20 C-1 17.88799515 -1.00373436 15.77588811 -1.03125 13.6640625 C-0.97756062 9.08704248 -0.47621113 4.54951707 0 0 Z " fill="#1F4473" transform="translate(667,504)"/>
<path d="M0 0 C0.515625 0.2475 1.03125 0.495 1.5625 0.75 C0.70269531 1.18828125 -0.15710938 1.6265625 -1.04296875 2.078125 C-9.34173208 6.47346602 -15.98809631 11.55339368 -22.6953125 18.11328125 C-24.86759897 20.20201824 -26.97721477 22.025446 -29.4375 23.75 C-28.75 20.4375 -28.75 20.4375 -27.4375 16.75 C-25.80872449 15.689402 -24.1331062 14.70010389 -22.4375 13.75 C-19.7385487 11.70357997 -17.07697127 9.62189275 -14.4296875 7.50976562 C-4.29570478 -0.44058511 -4.29570478 -0.44058511 0 0 Z " fill="#3A6283" transform="translate(203.4375,431.25)"/>
<path d="M0 0 C1.07487167 0.00141495 2.14974335 0.0028299 3.25718689 0.00428772 C6.65976858 0.00984474 10.06228226 0.02238912 13.46484375 0.03515625 C15.78450425 0.04017681 18.10416579 0.04473874 20.42382812 0.04882812 C26.08335618 0.05980006 31.7428451 0.07649485 37.40234375 0.09765625 C37.40234375 0.42765625 37.40234375 0.75765625 37.40234375 1.09765625 C23.21234375 1.42765625 9.02234375 1.75765625 -5.59765625 2.09765625 C-5.59765625 2.42765625 -5.59765625 2.75765625 -5.59765625 3.09765625 C-10.54765625 2.76765625 -15.49765625 2.43765625 -20.59765625 2.09765625 C-20.59765625 1.76765625 -20.59765625 1.43765625 -20.59765625 1.09765625 C-13.69154282 0.19414028 -6.9601967 -0.03503495 0 0 Z " fill="#EB504A" transform="translate(497.59765625,59.90234375)"/>
<path d="M0 0 C1.77295267 2.659429 2.44884944 4.14445281 3.21875 7.1328125 C3.42886719 7.93976562 3.63898438 8.74671875 3.85546875 9.578125 C4.06816406 10.41859375 4.28085938 11.2590625 4.5 12.125 C4.71269531 12.94226563 4.92539063 13.75953125 5.14453125 14.6015625 C6.5481714 20.04389731 7.80654632 25.50790297 9 31 C7 30 7 30 6.23803711 28.20581055 C6.0035083 27.44051025 5.76897949 26.67520996 5.52734375 25.88671875 C5.26759766 25.05076172 5.00785156 24.21480469 4.74023438 23.35351562 C4.47533203 22.47373047 4.21042969 21.59394531 3.9375 20.6875 C3.66873047 19.81931641 3.39996094 18.95113281 3.12304688 18.05664062 C1.19080433 11.778057 -0.12768407 6.6395719 0 0 Z " fill="#396181" transform="translate(144,658)"/>
<path d="M0 0 C0.66 0.33 1.32 0.66 2 1 C1.278125 1.804375 0.55625 2.60875 -0.1875 3.4375 C-3.4086007 7.30282084 -5.64882032 11.57254781 -8 16 C-8.93423844 17.68930786 -9.87162643 19.37687862 -10.8125 21.0625 C-11.23144531 21.81660156 -11.65039062 22.57070313 -12.08203125 23.34765625 C-12.38496094 23.89292969 -12.68789062 24.43820312 -13 25 C-14 22 -14 22 -13.03125 19.65234375 C-4.46534653 4.46534653 -4.46534653 4.46534653 0 0 Z " fill="#386183" transform="translate(172,456)"/>
<path d="M0 0 C0.66 0.33 1.32 0.66 2 1 C-1.27151426 5.88591685 -4.89740488 7.83249373 -10.0625 10.25 C-10.78244141 10.600625 -11.50238281 10.95125 -12.24414062 11.3125 C-15.14729271 12.7142076 -17.9362695 13.9787565 -21 15 C-20 12 -20 12 -17.05078125 10.3515625 C-15.80932876 9.76609723 -14.56296526 9.19095981 -13.3125 8.625 C-8.19509318 6.30037356 -4.2047285 3.75906604 0 0 Z " fill="#1A6194" transform="translate(397,481)"/>
<path d="M0 0 C0 0.33 0 0.66 0 1 C-5.445 1.495 -5.445 1.495 -11 2 C-10.67 3.32 -10.34 4.64 -10 6 C-12.875 6.1875 -12.875 6.1875 -16 6 C-16.66 5.01 -17.32 4.02 -18 3 C-6.66287016 -1.77676538 -6.66287016 -1.77676538 0 0 Z " fill="#4A6C82" transform="translate(415,578)"/>
<path d="M0 0 C0 0.99 0 1.98 0 3 C-0.61875 2.814375 -1.2375 2.62875 -1.875 2.4375 C-4.04160178 1.76313824 -4.04160178 1.76313824 -6 3 C-8.37402501 3.07116382 -10.75000677 3.08409085 -13.125 3.0625 C-14.40632812 3.05347656 -15.68765625 3.04445313 -17.0078125 3.03515625 C-18.48894531 3.01775391 -18.48894531 3.01775391 -20 3 C-19.67 2.34 -19.34 1.68 -19 1 C-12.60934419 -0.72366269 -6.46772619 -1.46993777 0 0 Z " fill="#576871" transform="translate(622,573)"/>
<path d="M0 0 C0.33 0 0.66 0 1 0 C1.50642925 3.06147257 2.00399322 6.12432299 2.5 9.1875 C2.64308594 10.05181641 2.78617188 10.91613281 2.93359375 11.80664062 C3.59314262 15.90526577 4.20709266 19.83226024 4 24 C-0.36855172 18.87170016 -0.14331693 13.6839381 -0.0625 7.1875 C-0.05798828 6.49462891 -0.05347656 5.80175781 -0.04882812 5.08789062 C-0.03713156 3.39188932 -0.01919924 1.69593297 0 0 Z " fill="#EC3C3D" transform="translate(253,344)"/>
<path d="M0 0 C1.2065625 0.08378906 2.413125 0.16757812 3.65625 0.25390625 C5.27080831 0.35716289 6.88539314 0.46000536 8.5 0.5625 C9.68722656 0.64661133 9.68722656 0.64661133 10.8984375 0.73242188 C16.09519779 1.05189484 20.85281562 0.79686914 26 0 C25.67 0.99 25.34 1.98 25 3 C8.29157175 3.3690205 8.29157175 3.3690205 0 1 C0 0.67 0 0.34 0 0 Z " fill="#15386E" transform="translate(350,494)"/>
<path d="M0 0 C0.66 0.99 1.32 1.98 2 3 C1.01 4.485 1.01 4.485 0 6 C0.66 6.33 1.32 6.66 2 7 C-0.31 9.64 -2.62 12.28 -5 15 C-5 11.37149374 -3.93046332 9.13832722 -2.5 5.8125 C-2.0359375 4.72582031 -1.571875 3.63914062 -1.09375 2.51953125 C-0.7328125 1.68808594 -0.371875 0.85664062 0 0 Z " fill="#F13F36" transform="translate(666,534)"/>
<path d="M0 0 C0.33 0 0.66 0 1 0 C1.31985731 6.71700347 0.4793824 11.75726932 -2 18 C-2.33 18 -2.66 18 -3 18 C-2.57045059 11.74892565 -1.98598493 5.95795479 0 0 Z " fill="#144979" transform="translate(667,519)"/>
<path d="M0 0 C0 3 0 3 -2.0625 5.375 C-5.23879895 8.21339481 -8.49017753 10.5912983 -12 13 C-12.66 12.67 -13.32 12.34 -14 12 C-12.23139162 10.37251997 -10.46024324 8.74796543 -8.6875 7.125 C-8.18798828 6.66480469 -7.68847656 6.20460938 -7.17382812 5.73046875 C-4.85790957 3.61393392 -2.61710426 1.74473617 0 0 Z " fill="#13396D" transform="translate(418,463)"/>
<path d="M0 0 C0.33 0.66 0.66 1.32 1 2 C0.01 2.99 -0.98 3.98 -2 5 C-0.35 4.67 1.3 4.34 3 4 C0.88613536 6.11386464 -0.79267603 6.97008322 -3.5 8.1875 C-4.2940625 8.55230469 -5.088125 8.91710937 -5.90625 9.29296875 C-6.5971875 9.52628906 -7.288125 9.75960938 -8 10 C-8.66 9.67 -9.32 9.34 -10 9 C-9.195625 8.401875 -8.39125 7.80375 -7.5625 7.1875 C-4.77672016 5.19052724 -4.77672016 5.19052724 -4 2 C-1.9375 0.8125 -1.9375 0.8125 0 0 Z " fill="#17305E" transform="translate(423,460)"/>
<path d="M0 0 C0.66 0.33 1.32 0.66 2 1 C0.40109514 6.19644079 -1.74138003 11.06612142 -4 16 C-5.06340773 12.80263986 -4.96582104 11.1018975 -3.6875 8 C-3.40648437 7.3090625 -3.12546875 6.618125 -2.8359375 5.90625 C-1.95601739 3.8997032 -1.04383494 1.92707989 0 0 Z " fill="#436780" transform="translate(331,631)"/>
<path d="M0 0 C1.33804687 0.04060547 1.33804687 0.04060547 2.703125 0.08203125 C3.37859375 0.11683594 4.0540625 0.15164063 4.75 0.1875 C3.75 2.1875 3.75 2.1875 1.984375 2.80859375 C-0.39150323 3.21149618 -2.59179517 3.28541478 -5 3.25 C-5.79921875 3.24097656 -6.5984375 3.23195313 -7.421875 3.22265625 C-8.02515625 3.21105469 -8.6284375 3.19945312 -9.25 3.1875 C-6.10408067 0.38704377 -4.182936 -0.16511589 0 0 Z " fill="#40657E" transform="translate(422.25,574.8125)"/>
<path d="M0 0 C1.32 0.99 2.64 1.98 4 3 C-1.17578125 6.22265625 -1.17578125 6.22265625 -3 7 C-3.99 6.67 -4.98 6.34 -6 6 C-5.34 5.67 -4.68 5.34 -4 5 C-4 4.34 -4 3.68 -4 3 C-3.34 3 -2.68 3 -2 3 C-1.67 2.34 -1.34 1.68 -1 1 C-0.67 0.67 -0.34 0.34 0 0 Z " fill="#3C546F" transform="translate(643,560)"/>
<path d="M0 0 C1.32 0.33 2.64 0.66 4 1 C0.7 3.31 -2.6 5.62 -6 8 C-6.66 7.67 -7.32 7.34 -8 7 C-5.42215154 4.35247996 -3.08351902 2.05567935 0 0 Z " fill="#EB3E3E" transform="translate(369,100)"/>
<path d="M0 0 C0 0.66 0 1.32 0 2 C-2.64458379 3.32229189 -4.67761301 3.09677194 -7.625 3.0625 C-8.62789062 3.05347656 -9.63078125 3.04445313 -10.6640625 3.03515625 C-11.43492187 3.02355469 -12.20578125 3.01195312 -13 3 C-8.54370064 0.02913376 -5.32064558 -0.12092376 0 0 Z " fill="#FBC539" transform="translate(585,930)"/>
<path d="M0 0 C0.68359375 1.765625 0.68359375 1.765625 1 4 C-0.21484375 5.921875 -0.21484375 5.921875 -1.9375 7.75 C-2.50339844 8.36359375 -3.06929687 8.9771875 -3.65234375 9.609375 C-4.31943359 10.29773438 -4.31943359 10.29773438 -5 11 C-5.99 10.67 -6.98 10.34 -8 10 C-7.50628906 9.44570313 -7.01257813 8.89140625 -6.50390625 8.3203125 C-5.86324219 7.59585938 -5.22257813 6.87140625 -4.5625 6.125 C-3.92441406 5.40570312 -3.28632812 4.68640625 -2.62890625 3.9453125 C-0.94985535 2.09249509 -0.94985535 2.09249509 0 0 Z " fill="#F9C43A" transform="translate(677,878)"/>
<path d="M0 0 C0.33 0.99 0.66 1.98 1 3 C-0.43359375 5.48046875 -0.43359375 5.48046875 -2.4375 8.1875 C-3.09621094 9.08855469 -3.75492187 9.98960937 -4.43359375 10.91796875 C-5.20896484 11.94857422 -5.20896484 11.94857422 -6 13 C-6.33 12.01 -6.66 11.02 -7 10 C-5.8203125 7.7734375 -5.8203125 7.7734375 -4.125 5.375 C-3.57070313 4.57835937 -3.01640625 3.78171875 -2.4453125 2.9609375 C-1 1 -1 1 0 0 Z " fill="#3A6482" transform="translate(341,617)"/>
<path d="M0 0 C-0.99 0.33 -1.98 0.66 -3 1 C-5.0899623 2.26225446 -7.12005492 3.60033406 -9.16015625 4.94140625 C-11 6 -11 6 -13 6 C-12.67 5.01 -12.34 4.02 -12 3 C-11.34 3 -10.68 3 -10 3 C-10 2.34 -10 1.68 -10 1 C-6.21812119 -0.83691257 -4.05431692 -1.15837626 0 0 Z " fill="#4E6D7D" transform="translate(378,591)"/>
<path d="M0 0 C0.99 0.33 1.98 0.66 3 1 C0.03 3.97 -2.94 6.94 -6 10 C-6 6.41087588 -5.33563446 5.89142971 -3 3.3125 C-2.443125 2.68988281 -1.88625 2.06726563 -1.3125 1.42578125 C-0.879375 0.95527344 -0.44625 0.48476562 0 0 Z " fill="#EB3D3E" transform="translate(332,129)"/>
<path d="M0 0 C-2.2386565 2.2386565 -4.06570533 2.8996395 -7 4 C-7.99 4.495 -7.99 4.495 -9 5 C-9.66 4.34 -10.32 3.68 -11 3 C-7.72430636 -0.27569364 -4.48909309 -0.12469703 0 0 Z " fill="#5A646A" transform="translate(634,569)"/>
<path d="M0 0 C1.07310858 3.27185553 0.89263102 5.42947592 0.0625 8.75 C-0.13214844 9.54921875 -0.32679688 10.3484375 -0.52734375 11.171875 C-0.68332031 11.77515625 -0.83929688 12.3784375 -1 13 C-1.33 13 -1.66 13 -2 13 C-2.05416188 11.39620659 -2.09286638 9.79188594 -2.125 8.1875 C-2.14820313 7.29417969 -2.17140625 6.40085937 -2.1953125 5.48046875 C-2 3 -2 3 0 0 Z " fill="#ED3E3E" transform="translate(257,262)"/>
<path d="M0 0 C0.33 0 0.66 0 1 0 C0.88541307 1.43836751 0.75790884 2.87570966 0.625 4.3125 C0.55539062 5.11300781 0.48578125 5.91351563 0.4140625 6.73828125 C0 9 0 9 -2 12 C-2.05422947 10.5629191 -2.09289723 9.12524538 -2.125 7.6875 C-2.14820313 6.88699219 -2.17140625 6.08648437 -2.1953125 5.26171875 C-2 3 -2 3 0 0 Z " fill="#EA3D3D" transform="translate(260,249)"/>
<path d="M0 0 C0.33 1.32 0.66 2.64 1 4 C-1.875 4.1875 -1.875 4.1875 -5 4 C-5.66 3.01 -6.32 2.02 -7 1 C-4.50935112 0.31292445 -2.62113708 0 0 0 Z " fill="#8C8D70" transform="translate(404,580)"/>
<path d="M0 0 C0.33 0 0.66 0 1 0 C0.67 2.97 0.34 5.94 0 9 C-0.66 9 -1.32 9 -2 9 C-1.125 2.25 -1.125 2.25 0 0 Z " fill="#F03E3D" transform="translate(753,404)"/>
<path d="M0 0 C0.33 0 0.66 0 1 0 C1.29296875 6.0546875 1.29296875 6.0546875 1 8 C0.01 8.66 -0.98 9.32 -2 10 C-1.34 6.7 -0.68 3.4 0 0 Z " fill="#ED3C3B" transform="translate(762,373)"/>
<path d="M0 0 C0.33 0.66 0.66 1.32 1 2 C-1.64 2.33 -4.28 2.66 -7 3 C-7.33 2.34 -7.66 1.68 -8 1 C-5.07175348 0.02391783 -3.04386724 -0.08226668 0 0 Z " fill="#FAE0DA" transform="translate(513,137)"/>
<path d="M0 0 C0.66 0 1.32 0 2 0 C2 0.99 2 1.98 2 3 C-0.97 2.67 -3.94 2.34 -7 2 C-7 1.67 -7 1.34 -7 1 C-5.5459375 1.0309375 -5.5459375 1.0309375 -4.0625 1.0625 C-1.12534105 1.35618499 -1.12534105 1.35618499 0 0 Z " fill="#97936A" transform="translate(422,578)"/>
<path d="M0 0 C0.33 0.66 0.66 1.32 1 2 C1.66 2.33 2.32 2.66 3 3 C2.01 3.33 1.02 3.66 0 4 C0 2.68 0 1.36 0 0 Z " fill="#D74B47" transform="translate(304,152)"/>
<path d="M0 0 C1.65 0 3.3 0 5 0 C5 0.66 5 1.32 5 2 C3.35 1.67 1.7 1.34 0 1 C0 0.67 0 0.34 0 0 Z " fill="#DF4D48" transform="translate(595,72)"/>
<path d="M0 0 C0.99 0.33 1.98 0.66 3 1 C3 1.66 3 2.32 3 3 C2.01 3 1.02 3 0 3 C0 2.01 0 1.02 0 0 Z " fill="#5F7A80" transform="translate(268,765)"/>
<path d="M0 0 C1.98 0 3.96 0 6 0 C6 0.33 6 0.66 6 1 C4.02 1 2.04 1 0 1 C0 0.67 0 0.34 0 0 Z " fill="#557682" transform="translate(242,764)"/>
<path d="M0 0 C1.65 0 3.3 0 5 0 C5 0.33 5 0.66 5 1 C3.35 1 1.7 1 0 1 C0 0.67 0 0.34 0 0 Z " fill="#F4C83D" transform="translate(511,941)"/>
<path d="M0 0 C0.33 0 0.66 0 1 0 C1 1.65 1 3.3 1 5 C0.67 5 0.34 5 0 5 C0 3.35 0 1.7 0 0 Z " fill="#F6CA40" transform="translate(694,815)"/>
<path d="M0 0 C0.66 0 1.32 0 2 0 C1.67 0.99 1.34 1.98 1 3 C0.67 2.01 0.34 1.02 0 0 Z " fill="#838774" transform="translate(326,651)"/>
<path d="M0 0 C0.33 0 0.66 0 1 0 C1 1.65 1 3.3 1 5 C0.67 5 0.34 5 0 5 C0 3.35 0 1.7 0 0 Z " fill="#436B8B" transform="translate(137,634)"/>
<path d="M0 0 C0.33 0 0.66 0 1 0 C1 1.65 1 3.3 1 5 C0.67 5 0.34 5 0 5 C0 3.35 0 1.7 0 0 Z " fill="#436D8C" transform="translate(136,626)"/>
<path d="M0 0 C0.66 0 1.32 0 2 0 C2 0.66 2 1.32 2 2 C1.01 1.67 0.02 1.34 -1 1 C-0.67 0.67 -0.34 0.34 0 0 Z " fill="#83886F" transform="translate(365,598)"/>
<path d="M0 0 C1.485 0.99 1.485 0.99 3 2 C1.68 1.67 0.36 1.34 -1 1 C-0.67 0.67 -0.34 0.34 0 0 Z " fill="#E3C04C" transform="translate(589,592)"/>
<path d="M0 0 C1.32 0.33 2.64 0.66 4 1 C3.01 1.33 2.02 1.66 1 2 C0.67 1.34 0.34 0.68 0 0 Z " fill="#93916C" transform="translate(405,581)"/>
<path d="M0 0 C0.33 1.32 0.66 2.64 1 4 C0.34 3.34 -0.32 2.68 -1 2 C-0.67 1.34 -0.34 0.68 0 0 Z " fill="#C65656" transform="translate(257,383)"/>
<path d="M0 0 C4 1 4 1 4 1 Z " fill="#F4C83E" transform="translate(506,941)"/>
<path d="M0 0 C0.99 0.33 1.98 0.66 3 1 C2.01 1.33 1.02 1.66 0 2 C0 1.34 0 0.68 0 0 Z " fill="#DDBE4E" transform="translate(395,600)"/>
<path d="M0 0 C4 1 4 1 4 1 Z " fill="#E6C44C" transform="translate(576,594)"/>
<path d="M0 0 C0.66 0.66 1.32 1.32 2 2 C1.01 1.67 0.02 1.34 -1 1 C-0.67 0.67 -0.34 0.34 0 0 Z " fill="#A19967" transform="translate(414,582)"/>
<path d="M0 0 C0.66 0.66 1.32 1.32 2 2 C1.01 1.67 0.02 1.34 -1 1 C-0.67 0.67 -0.34 0.34 0 0 Z " fill="#B39C5D" transform="translate(630,574)"/>
<path d="M0 0 C4 1 4 1 4 1 Z " fill="#F0C13F" transform="translate(813,417)"/>
<path d="M0 0 C1 4 1 4 1 4 Z " fill="#CF514F" transform="translate(251,352)"/>
<path d="M0 0 C1 4 1 4 1 4 Z " fill="#D6514F" transform="translate(249,335)"/>
<path d="M0 0 C0.99 1.485 0.99 1.485 2 3 C1.34 3 0.68 3 0 3 C0 2.01 0 1.02 0 0 Z " fill="#D84B46" transform="translate(296,163)"/>
<path d="M0 0 C0.99 0.33 1.98 0.66 3 1 C2.01 1 1.02 1 0 1 C0 0.67 0 0.34 0 0 Z " fill="#D84C46" transform="translate(313,144)"/>
<path d="M0 0 C0.66 0 1.32 0 2 0 C2 0.66 2 1.32 2 2 C1.34 2 0.68 2 0 2 C0 1.34 0 0.68 0 0 Z " fill="#D84B46" transform="translate(328,128)"/>
<path d="M0 0 C4 1 4 1 4 1 Z " fill="#D94A46" transform="translate(337,120)"/>
<path d="M0 0 C0.66 0.33 1.32 0.66 2 1 C1.01 1 0.02 1 -1 1 C-0.67 0.67 -0.34 0.34 0 0 Z " fill="#DC4944" transform="translate(372,96)"/>
<path d="M0 0 C0.66 0.33 1.32 0.66 2 1 C1.01 1 0.02 1 -1 1 C-0.67 0.67 -0.34 0.34 0 0 Z " fill="#E04D48" transform="translate(420,72)"/>
<path d="M0 0 C3 1 3 1 3 1 Z " fill="#F4C73E" transform="translate(488,940)"/>
<path d="M0 0 C3 1 3 1 3 1 Z " fill="#F3C63F" transform="translate(579,934)"/>
<path d="M0 0 C3 1 3 1 3 1 Z " fill="#F1C541" transform="translate(440,933)"/>
<path d="M0 0 C3 1 3 1 3 1 Z " fill="#F1C43F" transform="translate(437,932)"/>
<path d="M0 0 C3 1 3 1 3 1 Z " fill="#F0C541" transform="translate(418,927)"/>
<path d="" fill="#F7CC42" transform="translate(0,0)"/>
<path d="" fill="#F7CD41" transform="translate(0,0)"/>
<path d="" fill="#FACE41" transform="translate(0,0)"/>
<path d="M0 0 C0.99 0.495 0.99 0.495 2 1 C1.01 1.495 1.01 1.495 0 2 C0 1.34 0 0.68 0 0 Z " fill="#567481" transform="translate(244,766)"/>
<path d="M0 0 C3 1 3 1 3 1 Z " fill="#8C906C" transform="translate(315,764)"/>
<path d="M0 0 C3 1 3 1 3 1 Z " fill="#507184" transform="translate(225,763)"/>
<path d="" fill="#436B89" transform="translate(0,0)"/>
<path d="M0 0 C0.66 0.66 1.32 1.32 2 2 C1.34 2 0.68 2 0 2 C0 1.34 0 0.68 0 0 Z " fill="#818975" transform="translate(323,661)"/>
<path d="M0 0 C0.33 0.66 0.66 1.32 1 2 C0.34 1.67 -0.32 1.34 -1 1 C-0.67 0.67 -0.34 0.34 0 0 Z " fill="#828870" transform="translate(335,631)"/>
<path d="M0 0 C0.66 0.66 1.32 1.32 2 2 C1.34 2 0.68 2 0 2 C0 1.34 0 0.68 0 0 Z " fill="#868871" transform="translate(340,622)"/>
<path d="" fill="#436D8A" transform="translate(0,0)"/>
<path d="" fill="#8A8B72" transform="translate(0,0)"/>
<path d="M0 0 C3 1 3 1 3 1 Z " fill="#E9C44C" transform="translate(550,594)"/>
<path d="M0 0 C3 1 3 1 3 1 Z " fill="#E8C44B" transform="translate(527,594)"/>
<path d="M0 0 C3 1 3 1 3 1 Z " fill="#E8C44C" transform="translate(501,594)"/>
<path d="M0 0 C3 1 3 1 3 1 Z " fill="#E7C54E" transform="translate(485,594)"/>
<path d="M0 0 C3 1 3 1 3 1 Z " fill="#E4C24D" transform="translate(477,594)"/>
<path d="M0 0 C3 1 3 1 3 1 Z " fill="#E3C14D" transform="translate(445,594)"/>
<path d="M0 0 C0.33 0.66 0.66 1.32 1 2 C0.34 1.67 -0.32 1.34 -1 1 C-0.67 0.67 -0.34 0.34 0 0 Z " fill="#DBBA4F" transform="translate(616,586)"/>
<path d="M0 0 C3 1 3 1 3 1 Z " fill="#95936C" transform="translate(412,580)"/>
<path d="M0 0 C0.66 0 1.32 0 2 0 C1.67 0.66 1.34 1.32 1 2 C0.67 1.34 0.34 0.68 0 0 Z " fill="#95936A" transform="translate(409,580)"/>
<path d="" fill="#426E8E" transform="translate(0,0)"/>
<path d="" fill="#416E8D" transform="translate(0,0)"/>
<path d="" fill="#EEC240" transform="translate(0,0)"/>
<path d="M0 0 C3 1 3 1 3 1 Z " fill="#F3C443" transform="translate(809,416)"/>
<path d="" fill="#AD575C" transform="translate(0,0)"/>
<path d="" fill="#E4664D" transform="translate(0,0)"/>
<path d="" fill="#C2575A" transform="translate(0,0)"/>
<path d="" fill="#E15C4C" transform="translate(0,0)"/>
<path d="" fill="#D74E49" transform="translate(0,0)"/>
<path d="M0 0 C0.66 0 1.32 0 2 0 C1.67 0.66 1.34 1.32 1 2 C0.67 1.34 0.34 0.68 0 0 Z " fill="#D84C48" transform="translate(251,273)"/>
<path d="" fill="#DA4E47" transform="translate(0,0)"/>
<path d="M0 0 C3 1 3 1 3 1 Z " fill="#D94A46" transform="translate(306,152)"/>
<path d="M0 0 C0.66 0 1.32 0 2 0 C1.67 0.66 1.34 1.32 1 2 C0.67 1.34 0.34 0.68 0 0 Z " fill="#DB4B46" transform="translate(662,106)"/>
<path d="M0 0 C0.99 0.495 0.99 0.495 2 1 C1.01 1.495 1.01 1.495 0 2 C0 1.34 0 0.68 0 0 Z " fill="#E14D47" transform="translate(416,74)"/>
<path d="M0 0 C3 1 3 1 3 1 Z " fill="#E2524B" transform="translate(449,64)"/>
<path d="M0 0 C3 1 3 1 3 1 Z " fill="#E2514B" transform="translate(492,58)"/>
<path d="M0 0 C2 1 2 1 2 1 Z " fill="#F4C63D" transform="translate(519,941)"/>
<path d="M0 0 C2 1 2 1 2 1 Z " fill="#F1C83F" transform="translate(551,939)"/>
<path d="M0 0 C2 1 2 1 2 1 Z " fill="#F3C73E" transform="translate(478,939)"/>
<path d="M0 0 C2 1 2 1 2 1 Z " fill="#F4C640" transform="translate(451,935)"/>
<path d="M0 0 C2 1 2 1 2 1 Z " fill="#F1C542" transform="translate(606,927)"/>
<path d="M0 0 C2 1 2 1 2 1 Z " fill="#EEC240" transform="translate(376,908)"/>
<path d="" fill="#EBC041" transform="translate(0,0)"/>
<path d="" fill="#F1C43F" transform="translate(0,0)"/>
<path d="" fill="#F4C93F" transform="translate(0,0)"/>
<path d="" fill="#F6CA41" transform="translate(0,0)"/>
<path d="" fill="#F7CA3F" transform="translate(0,0)"/>
<path d="" fill="#F9CE43" transform="translate(0,0)"/>
<path d="" fill="#F7CD40" transform="translate(0,0)"/>
<path d="" fill="#81896F" transform="translate(0,0)"/>
<path d="" fill="#738378" transform="translate(0,0)"/>
<path d="M0 0 C2 1 2 1 2 1 Z " fill="#7D8672" transform="translate(308,764)"/>
<path d="M0 0 C2 1 2 1 2 1 Z " fill="#6C817B" transform="translate(294,764)"/>
<path d="M0 0 C2 1 2 1 2 1 Z " fill="#677D7D" transform="translate(286,764)"/>
<path d="M0 0 C2 1 2 1 2 1 Z " fill="#5D7981" transform="translate(266,764)"/>
<path d="M0 0 C2 1 2 1 2 1 Z " fill="#597781" transform="translate(254,764)"/>
<path d="" fill="#FACD41" transform="translate(0,0)"/>
<path d="M0 0 C2 1 2 1 2 1 Z " fill="#4D6F87" transform="translate(208,759)"/>
<path d="M0 0 C2 1 2 1 2 1 Z " fill="#F3C63F" transform="translate(784,757)"/>
<path d="M0 0 C2 1 2 1 2 1 Z " fill="#F5C83F" transform="translate(776,757)"/>
<path d="M0 0 C2 1 2 1 2 1 Z " fill="#F7CB3F" transform="translate(752,757)"/>
<path d="M0 0 C2 1 2 1 2 1 Z " fill="#FACC41" transform="translate(728,757)"/>
<path d="" fill="#FBCD3E" transform="translate(0,0)"/>
<path d="M0 0 C2 1 2 1 2 1 Z " fill="#FCD140" transform="translate(632,757)"/>
<path d="M0 0 C2 1 2 1 2 1 Z " fill="#FCCF3F" transform="translate(624,757)"/>
<path d="M0 0 C2 1 2 1 2 1 Z " fill="#486D84" transform="translate(202,756)"/>
<path d="" fill="#EABF3E" transform="translate(0,0)"/>
<path d="" fill="#406B89" transform="translate(0,0)"/>
<path d="" fill="#406B89" transform="translate(0,0)"/>
<path d="" fill="#CEB553" transform="translate(0,0)"/>
<path d="" fill="#CFB453" transform="translate(0,0)"/>
<path d="M0 0 C2 1 2 1 2 1 Z " fill="#8D8E73" transform="translate(326,659)"/>
<path d="" fill="#808A76" transform="translate(0,0)"/>
<path d="" fill="#D6B851" transform="translate(0,0)"/>
<path d="" fill="#838875" transform="translate(0,0)"/>
<path d="" fill="#416C8A" transform="translate(0,0)"/>
<path d="M0 0 C2 1 2 1 2 1 Z " fill="#3F6989" transform="translate(136,649)"/>
<path d="" fill="#436C8A" transform="translate(0,0)"/>
<path d="M0 0 C2 1 2 1 2 1 Z " fill="#DDBD4F" transform="translate(378,608)"/>
<path d="M0 0 C2 1 2 1 2 1 Z " fill="#E0C04F" transform="translate(408,597)"/>
<path d="M0 0 C2 1 2 1 2 1 Z " fill="#8B8F6F" transform="translate(369,597)"/>
<path d="M0 0 C2 1 2 1 2 1 Z " fill="#E4C24B" transform="translate(582,594)"/>
<path d="M0 0 C2 1 2 1 2 1 Z " fill="#E7C34B" transform="translate(566,594)"/>
<path d="M0 0 C2 1 2 1 2 1 Z " fill="#E8C44B" transform="translate(534,594)"/>
<path d="M0 0 C2 1 2 1 2 1 Z " fill="#E9C44C" transform="translate(510,594)"/>
<path d="M0 0 C2 1 2 1 2 1 Z " fill="#E7C34D" transform="translate(494,594)"/>
<path d="M0 0 C2 1 2 1 2 1 Z " fill="#E6C24C" transform="translate(462,594)"/>
<path d="M0 0 C2 1 2 1 2 1 Z " fill="#E4C14D" transform="translate(454,594)"/>
<path d="M0 0 C2 1 2 1 2 1 Z " fill="#E4C24F" transform="translate(438,594)"/>
<path d="M0 0 C2 1 2 1 2 1 Z " fill="#858C70" transform="translate(371,594)"/>
<path d="M0 0 C2 1 2 1 2 1 Z " fill="#A69B64" transform="translate(421,583)"/>
<path d="" fill="#C7A750" transform="translate(0,0)"/>
<path d="M0 0 C2 1 2 1 2 1 Z " fill="#B1904E" transform="translate(640,567)"/>
<path d="" fill="#456E8C" transform="translate(0,0)"/>
<path d="" fill="#426E8F" transform="translate(0,0)"/>
<path d="" fill="#F1C440" transform="translate(0,0)"/>
<path d="" fill="#EEC340" transform="translate(0,0)"/>
<path d="" fill="#F0C440" transform="translate(0,0)"/>
<path d="" fill="#EEC140" transform="translate(0,0)"/>
<path d="" fill="#F0C242" transform="translate(0,0)"/>
<path d="" fill="#ECC13F" transform="translate(0,0)"/>
<path d="M0 0 C2 1 2 1 2 1 Z " fill="#486D88" transform="translate(184,440)"/>
<path d="M0 0 C2 1 2 1 2 1 Z " fill="#4F6C89" transform="translate(212,425)"/>
<path d="" fill="#845B6E" transform="translate(0,0)"/>
<path d="M0 0 C2 1 2 1 2 1 Z " fill="#F2C341" transform="translate(821,419)"/>
<path d="M0 0 C2 1 2 1 2 1 Z " fill="#F3C343" transform="translate(818,418)"/>
<path d="" fill="#C55757" transform="translate(0,0)"/>
<path d="" fill="#E55D4A" transform="translate(0,0)"/>
<path d="" fill="#E35B49" transform="translate(0,0)"/>
<path d="" fill="#D15453" transform="translate(0,0)"/>
<path d="" fill="#D5524F" transform="translate(0,0)"/>
<path d="" fill="#DB504D" transform="translate(0,0)"/>
<path d="" fill="#DA504E" transform="translate(0,0)"/>
<path d="" fill="#D9504C" transform="translate(0,0)"/>
<path d="" fill="#DA4F4A" transform="translate(0,0)"/>
<path d="" fill="#D94E4A" transform="translate(0,0)"/>
<path d="M0 0 C2 1 2 1 2 1 Z " fill="#DA4D47" transform="translate(764,256)"/>
<path d="" fill="#DA4D49" transform="translate(0,0)"/>
<path d="" fill="#DC4C48" transform="translate(0,0)"/>
<path d="" fill="#D84945" transform="translate(0,0)"/>
<path d="" fill="#D94F4A" transform="translate(0,0)"/>
<path d="" fill="#D74F4A" transform="translate(0,0)"/>
<path d="" fill="#D94C47" transform="translate(0,0)"/>
<path d="" fill="#D74B46" transform="translate(0,0)"/>
<path d="" fill="#D84D48" transform="translate(0,0)"/>
<path d="" fill="#D94B45" transform="translate(0,0)"/>
<path d="" fill="#DB4B47" transform="translate(0,0)"/>
<path d="M0 0 C2 1 2 1 2 1 Z " fill="#D74742" transform="translate(710,146)"/>
<path d="" fill="#DE4B47" transform="translate(0,0)"/>
<path d="M0 0 C2 1 2 1 2 1 Z " fill="#DB514A" transform="translate(360,104)"/>
<path d="M0 0 C2 1 2 1 2 1 Z " fill="#DA4E46" transform="translate(646,96)"/>
<path d="M0 0 C2 1 2 1 2 1 Z " fill="#DF4E4A" transform="translate(386,88)"/>
<path d="M0 0 C2 1 2 1 2 1 Z " fill="#E14E47" transform="translate(615,80)"/>
<path d="M0 0 C2 1 2 1 2 1 Z " fill="#E2504B" transform="translate(573,65)"/>
<path d="" fill="#F5C83F" transform="translate(0,0)"/>
<path d="" fill="#F5C63D" transform="translate(0,0)"/>
<path d="" fill="#F4C63F" transform="translate(0,0)"/>
<path d="" fill="#F2C83F" transform="translate(0,0)"/>
<path d="" fill="#F2C73D" transform="translate(0,0)"/>
<path d="" fill="#F2C73E" transform="translate(0,0)"/>
<path d="" fill="#F3C73F" transform="translate(0,0)"/>
<path d="" fill="#F4C63F" transform="translate(0,0)"/>
<path d="" fill="#F1C73F" transform="translate(0,0)"/>
<path d="" fill="#F2C53F" transform="translate(0,0)"/>
<path d="" fill="#F1C742" transform="translate(0,0)"/>
<path d="" fill="#EEC33D" transform="translate(0,0)"/>
<path d="" fill="#F1C53F" transform="translate(0,0)"/>
<path d="" fill="#F1C540" transform="translate(0,0)"/>
<path d="" fill="#F3C440" transform="translate(0,0)"/>
<path d="" fill="#F1C742" transform="translate(0,0)"/>
<path d="" fill="#F2C43C" transform="translate(0,0)"/>
<path d="" fill="#F2C63D" transform="translate(0,0)"/>
<path d="" fill="#EEC040" transform="translate(0,0)"/>
<path d="" fill="#EEC33F" transform="translate(0,0)"/>
<path d="" fill="#F0C43F" transform="translate(0,0)"/>
<path d="" fill="#EEC33C" transform="translate(0,0)"/>
<path d="" fill="#ECC13C" transform="translate(0,0)"/>
<path d="" fill="#F1C23E" transform="translate(0,0)"/>
<path d="" fill="#EDC43D" transform="translate(0,0)"/>
<path d="" fill="#EDC243" transform="translate(0,0)"/>
<path d="" fill="#EDC044" transform="translate(0,0)"/>
<path d="" fill="#EDC13B" transform="translate(0,0)"/>
<path d="" fill="#ECC03F" transform="translate(0,0)"/>
<path d="" fill="#EEC23F" transform="translate(0,0)"/>
<path d="" fill="#ECC13F" transform="translate(0,0)"/>
<path d="" fill="#EDC040" transform="translate(0,0)"/>
<path d="" fill="#ECC13A" transform="translate(0,0)"/>
<path d="" fill="#EEC23D" transform="translate(0,0)"/>
<path d="" fill="#E9BF3E" transform="translate(0,0)"/>
<path d="" fill="#EBC041" transform="translate(0,0)"/>
<path d="" fill="#E9BD3A" transform="translate(0,0)"/>
<path d="" fill="#ECC13E" transform="translate(0,0)"/>
<path d="" fill="#ECC03E" transform="translate(0,0)"/>
<path d="" fill="#EFC23C" transform="translate(0,0)"/>
<path d="" fill="#EBC23F" transform="translate(0,0)"/>
<path d="" fill="#EBC23D" transform="translate(0,0)"/>
<path d="" fill="#EAC13F" transform="translate(0,0)"/>
<path d="" fill="#EDC340" transform="translate(0,0)"/>
<path d="" fill="#F4C83F" transform="translate(0,0)"/>
<path d="" fill="#F6C93F" transform="translate(0,0)"/>
<path d="" fill="#F7CD3E" transform="translate(0,0)"/>
<path d="" fill="#F5C941" transform="translate(0,0)"/>
<path d="" fill="#F7CC40" transform="translate(0,0)"/>
<path d="" fill="#F7CD41" transform="translate(0,0)"/>
<path d="" fill="#F7CF41" transform="translate(0,0)"/>
<path d="" fill="#E5C046" transform="translate(0,0)"/>
<path d="" fill="#F8CE44" transform="translate(0,0)"/>
<path d="" fill="#939568" transform="translate(0,0)"/>
<path d="" fill="#617A7D" transform="translate(0,0)"/>
<path d="" fill="#5C7880" transform="translate(0,0)"/>
<path d="" fill="#597680" transform="translate(0,0)"/>
<path d="" fill="#537382" transform="translate(0,0)"/>
<path d="" fill="#FCD03E" transform="translate(0,0)"/>
<path d="" fill="#FCD13E" transform="translate(0,0)"/>
<path d="" fill="#FDD03D" transform="translate(0,0)"/>
<path d="" fill="#FECF40" transform="translate(0,0)"/>
<path d="" fill="#FCCE40" transform="translate(0,0)"/>
<path d="" fill="#FECD3F" transform="translate(0,0)"/>
<path d="" fill="#FBD043" transform="translate(0,0)"/>
<path d="" fill="#868C70" transform="translate(0,0)"/>
<path d="" fill="#617B80" transform="translate(0,0)"/>
<path d="" fill="#D9BC4F" transform="translate(0,0)"/>
<path d="" fill="#5B7781" transform="translate(0,0)"/>
<path d="" fill="#5A7582" transform="translate(0,0)"/>
<path d="" fill="#577783" transform="translate(0,0)"/>
<path d="" fill="#DABB4B" transform="translate(0,0)"/>
<path d="" fill="#6A807D" transform="translate(0,0)"/>
<path d="" fill="#5F7B7E" transform="translate(0,0)"/>
<path d="" fill="#587683" transform="translate(0,0)"/>
<path d="" fill="#537685" transform="translate(0,0)"/>
<path d="" fill="#F9CD3E" transform="translate(0,0)"/>
<path d="" fill="#517283" transform="translate(0,0)"/>
<path d="" fill="#FBCC3E" transform="translate(0,0)"/>
<path d="" fill="#FACE43" transform="translate(0,0)"/>
<path d="" fill="#FBCD40" transform="translate(0,0)"/>
<path d="" fill="#FCD040" transform="translate(0,0)"/>
<path d="" fill="#F9CD43" transform="translate(0,0)"/>
<path d="" fill="#F8CC42" transform="translate(0,0)"/>
<path d="" fill="#496D87" transform="translate(0,0)"/>
<path d="" fill="#F1C33B" transform="translate(0,0)"/>
<path d="" fill="#F7CB3F" transform="translate(0,0)"/>
<path d="" fill="#F6CB40" transform="translate(0,0)"/>
<path d="" fill="#F6CC40" transform="translate(0,0)"/>
<path d="" fill="#F8CB3E" transform="translate(0,0)"/>
<path d="" fill="#FACD40" transform="translate(0,0)"/>
<path d="" fill="#F9CE41" transform="translate(0,0)"/>
<path d="" fill="#FBD041" transform="translate(0,0)"/>
<path d="" fill="#FBCE3F" transform="translate(0,0)"/>
<path d="" fill="#FCCE40" transform="translate(0,0)"/>
<path d="" fill="#FCCF3E" transform="translate(0,0)"/>
<path d="" fill="#FACE41" transform="translate(0,0)"/>
<path d="" fill="#FCD140" transform="translate(0,0)"/>
<path d="" fill="#FCD040" transform="translate(0,0)"/>
<path d="" fill="#FBCF40" transform="translate(0,0)"/>
<path d="" fill="#FCCF41" transform="translate(0,0)"/>
<path d="" fill="#F1C43E" transform="translate(0,0)"/>
<path d="" fill="#F1C53E" transform="translate(0,0)"/>
<path d="" fill="#EEC23D" transform="translate(0,0)"/>
<path d="" fill="#EEC43E" transform="translate(0,0)"/>
<path d="" fill="#F0C43D" transform="translate(0,0)"/>
<path d="" fill="#90946A" transform="translate(0,0)"/>
<path d="" fill="#486D87" transform="translate(0,0)"/>
<path d="" fill="#EDC23F" transform="translate(0,0)"/>
<path d="" fill="#496C86" transform="translate(0,0)"/>
<path d="" fill="#EDC13D" transform="translate(0,0)"/>
<path d="" fill="#476E85" transform="translate(0,0)"/>
<path d="" fill="#EDBE3D" transform="translate(0,0)"/>
<path d="" fill="#CEB754" transform="translate(0,0)"/>
<path d="" fill="#D0B550" transform="translate(0,0)"/>
<path d="" fill="#868F70" transform="translate(0,0)"/>
<path d="" fill="#416884" transform="translate(0,0)"/>
<path d="" fill="#406A85" transform="translate(0,0)"/>
<path d="" fill="#426884" transform="translate(0,0)"/>
<path d="" fill="#3F6882" transform="translate(0,0)"/>
<path d="" fill="#406A85" transform="translate(0,0)"/>
<path d="" fill="#426883" transform="translate(0,0)"/>
<path d="" fill="#CCB554" transform="translate(0,0)"/>
<path d="" fill="#CAB456" transform="translate(0,0)"/>
<path d="" fill="#CBB554" transform="translate(0,0)"/>
<path d="" fill="#E4B93C" transform="translate(0,0)"/>
<path d="" fill="#CCB654" transform="translate(0,0)"/>
<path d="" fill="#416C8B" transform="translate(0,0)"/>
<path d="" fill="#416A88" transform="translate(0,0)"/>
<path d="" fill="#D2B650" transform="translate(0,0)"/>
<path d="" fill="#EEC03F" transform="translate(0,0)"/>
<path d="" fill="#3F6B89" transform="translate(0,0)"/>
<path d="" fill="#ECC142" transform="translate(0,0)"/>
<path d="" fill="#436C8A" transform="translate(0,0)"/>
<path d="" fill="#ECC340" transform="translate(0,0)"/>
<path d="" fill="#EAC03E" transform="translate(0,0)"/>
<path d="" fill="#446C8A" transform="translate(0,0)"/>
<path d="" fill="#ECC143" transform="translate(0,0)"/>
<path d="" fill="#416C88" transform="translate(0,0)"/>
<path d="" fill="#406887" transform="translate(0,0)"/>
<path d="" fill="#CDB554" transform="translate(0,0)"/>
<path d="" fill="#426D88" transform="translate(0,0)"/>
<path d="" fill="#DBBE4F" transform="translate(0,0)"/>
<path d="" fill="#D7B94F" transform="translate(0,0)"/>
<path d="" fill="#91946E" transform="translate(0,0)"/>
<path d="" fill="#D3B954" transform="translate(0,0)"/>
<path d="" fill="#888C73" transform="translate(0,0)"/>
<path d="" fill="#EDC242" transform="translate(0,0)"/>
<path d="" fill="#D6B952" transform="translate(0,0)"/>
<path d="" fill="#D2B852" transform="translate(0,0)"/>
<path d="" fill="#848775" transform="translate(0,0)"/>
<path d="" fill="#3F6D88" transform="translate(0,0)"/>
<path d="" fill="#D5B953" transform="translate(0,0)"/>
<path d="" fill="#3F6B8B" transform="translate(0,0)"/>
<path d="" fill="#D7BC51" transform="translate(0,0)"/>
<path d="" fill="#D9BB50" transform="translate(0,0)"/>
<path d="" fill="#DCBB4D" transform="translate(0,0)"/>
<path d="" fill="#3F6A8A" transform="translate(0,0)"/>
<path d="" fill="#426B89" transform="translate(0,0)"/>
<path d="" fill="#838B74" transform="translate(0,0)"/>
<path d="" fill="#D9BB51" transform="translate(0,0)"/>
<path d="" fill="#90906E" transform="translate(0,0)"/>
<path d="" fill="#8A8C70" transform="translate(0,0)"/>
<path d="" fill="#C4AF58" transform="translate(0,0)"/>
<path d="" fill="#898C71" transform="translate(0,0)"/>
<path d="" fill="#CFB653" transform="translate(0,0)"/>
<path d="" fill="#F0C341" transform="translate(0,0)"/>
<path d="" fill="#D3B753" transform="translate(0,0)"/>
<path d="" fill="#D2B755" transform="translate(0,0)"/>
<path d="" fill="#D3B751" transform="translate(0,0)"/>
<path d="" fill="#C6B05A" transform="translate(0,0)"/>
<path d="" fill="#EDC240" transform="translate(0,0)"/>
<path d="" fill="#8B8C70" transform="translate(0,0)"/>
<path d="" fill="#EDC33E" transform="translate(0,0)"/>
<path d="" fill="#D3B857" transform="translate(0,0)"/>
<path d="" fill="#858875" transform="translate(0,0)"/>
<path d="" fill="#EEC43F" transform="translate(0,0)"/>
<path d="" fill="#D5B954" transform="translate(0,0)"/>
<path d="" fill="#CDB355" transform="translate(0,0)"/>
<path d="" fill="#D0B658" transform="translate(0,0)"/>
<path d="" fill="#8E8E71" transform="translate(0,0)"/>
<path d="" fill="#D7B852" transform="translate(0,0)"/>
<path d="" fill="#7E8475" transform="translate(0,0)"/>
<path d="" fill="#7F8576" transform="translate(0,0)"/>
<path d="" fill="#828671" transform="translate(0,0)"/>
<path d="" fill="#828A74" transform="translate(0,0)"/>
<path d="" fill="#DCBE50" transform="translate(0,0)"/>
<path d="" fill="#CFB454" transform="translate(0,0)"/>
<path d="" fill="#878A72" transform="translate(0,0)"/>
<path d="" fill="#828777" transform="translate(0,0)"/>
<path d="" fill="#DDC053" transform="translate(0,0)"/>
<path d="" fill="#828675" transform="translate(0,0)"/>
<path d="" fill="#838872" transform="translate(0,0)"/>
<path d="" fill="#EEC241" transform="translate(0,0)"/>
<path d="" fill="#EEC442" transform="translate(0,0)"/>
<path d="" fill="#9C986B" transform="translate(0,0)"/>
<path d="" fill="#97946C" transform="translate(0,0)"/>
<path d="" fill="#838870" transform="translate(0,0)"/>
<path d="" fill="#E1C050" transform="translate(0,0)"/>
<path d="" fill="#E0C151" transform="translate(0,0)"/>
<path d="" fill="#848C73" transform="translate(0,0)"/>
<path d="" fill="#E8C44B" transform="translate(0,0)"/>
<path d="" fill="#E9C54C" transform="translate(0,0)"/>
<path d="" fill="#E5C24F" transform="translate(0,0)"/>
<path d="" fill="#E2C152" transform="translate(0,0)"/>
<path d="" fill="#8C8F6F" transform="translate(0,0)"/>
<path d="" fill="#E3BF4D" transform="translate(0,0)"/>
<path d="" fill="#D3B753" transform="translate(0,0)"/>
<path d="" fill="#F0C541" transform="translate(0,0)"/>
<path d="" fill="#A59B68" transform="translate(0,0)"/>
<path d="" fill="#8D8E6E" transform="translate(0,0)"/>
<path d="" fill="#DFBC4D" transform="translate(0,0)"/>
<path d="" fill="#DDBD4E" transform="translate(0,0)"/>
<path d="" fill="#9D976A" transform="translate(0,0)"/>
<path d="" fill="#94946E" transform="translate(0,0)"/>
<path d="" fill="#8D8E6E" transform="translate(0,0)"/>
<path d="" fill="#F0C443" transform="translate(0,0)"/>
<path d="" fill="#8E916E" transform="translate(0,0)"/>
<path d="" fill="#DABA4D" transform="translate(0,0)"/>
<path d="" fill="#8A8F6C" transform="translate(0,0)"/>
<path d="" fill="#D9B84F" transform="translate(0,0)"/>
<path d="" fill="#91916D" transform="translate(0,0)"/>
<path d="" fill="#F0C441" transform="translate(0,0)"/>
<path d="" fill="#99956A" transform="translate(0,0)"/>
<path d="" fill="#8D8D6E" transform="translate(0,0)"/>
<path d="" fill="#9B9669" transform="translate(0,0)"/>
<path d="" fill="#D1B253" transform="translate(0,0)"/>
<path d="" fill="#9B956A" transform="translate(0,0)"/>
<path d="" fill="#9C966A" transform="translate(0,0)"/>
<path d="" fill="#A09965" transform="translate(0,0)"/>
<path d="" fill="#9C9766" transform="translate(0,0)"/>
<path d="" fill="#9C9566" transform="translate(0,0)"/>
<path d="" fill="#9B9769" transform="translate(0,0)"/>
<path d="" fill="#9E9868" transform="translate(0,0)"/>
<path d="" fill="#9C9766" transform="translate(0,0)"/>
<path d="" fill="#9C9769" transform="translate(0,0)"/>
<path d="" fill="#9E9666" transform="translate(0,0)"/>
<path d="" fill="#9A9868" transform="translate(0,0)"/>
<path d="" fill="#D3B34D" transform="translate(0,0)"/>
<path d="" fill="#999364" transform="translate(0,0)"/>
<path d="" fill="#D9B64A" transform="translate(0,0)"/>
<path d="" fill="#CEAC4F" transform="translate(0,0)"/>
<path d="" fill="#A08F64" transform="translate(0,0)"/>
<path d="" fill="#BAA057" transform="translate(0,0)"/>
<path d="" fill="#A49160" transform="translate(0,0)"/>
<path d="" fill="#A39161" transform="translate(0,0)"/>
<path d="" fill="#B09C5A" transform="translate(0,0)"/>
<path d="" fill="#BEA053" transform="translate(0,0)"/>
<path d="" fill="#B29B57" transform="translate(0,0)"/>
<path d="" fill="#B39858" transform="translate(0,0)"/>
<path d="" fill="#BC9950" transform="translate(0,0)"/>
<path d="" fill="#C3A051" transform="translate(0,0)"/>
<path d="" fill="#446E8E" transform="translate(0,0)"/>
<path d="" fill="#446F90" transform="translate(0,0)"/>
<path d="" fill="#446E8D" transform="translate(0,0)"/>
<path d="" fill="#F1C63F" transform="translate(0,0)"/>
<path d="" fill="#416C8D" transform="translate(0,0)"/>
<path d="" fill="#426E8D" transform="translate(0,0)"/>
<path d="" fill="#416E8E" transform="translate(0,0)"/>
<path d="" fill="#3F6B8A" transform="translate(0,0)"/>
<path d="" fill="#426C8C" transform="translate(0,0)"/>
<path d="" fill="#EEC342" transform="translate(0,0)"/>
<path d="" fill="#446D8B" transform="translate(0,0)"/>
<path d="" fill="#446F8F" transform="translate(0,0)"/>
<path d="" fill="#416D8B" transform="translate(0,0)"/>
<path d="" fill="#456F8C" transform="translate(0,0)"/>
<path d="" fill="#3F6B89" transform="translate(0,0)"/>
<path d="" fill="#466C88" transform="translate(0,0)"/>
<path d="" fill="#F0C342" transform="translate(0,0)"/>
<path d="" fill="#EEC143" transform="translate(0,0)"/>
<path d="" fill="#446E8C" transform="translate(0,0)"/>
<path d="" fill="#476F8B" transform="translate(0,0)"/>
<path d="" fill="#EEC040" transform="translate(0,0)"/>
<path d="" fill="#F0C140" transform="translate(0,0)"/>
<path d="" fill="#EEC340" transform="translate(0,0)"/>
<path d="" fill="#EEC13F" transform="translate(0,0)"/>
<path d="" fill="#4B6D8A" transform="translate(0,0)"/>
<path d="" fill="#EEC143" transform="translate(0,0)"/>
<path d="" fill="#4A6B88" transform="translate(0,0)"/>
<path d="" fill="#EBC244" transform="translate(0,0)"/>
<path d="" fill="#516E8B" transform="translate(0,0)"/>
<path d="" fill="#4E6D8A" transform="translate(0,0)"/>
<path d="" fill="#5E6B86" transform="translate(0,0)"/>
<path d="" fill="#895971" transform="translate(0,0)"/>
<path d="" fill="#6E6881" transform="translate(0,0)"/>
<path d="" fill="#6C6783" transform="translate(0,0)"/>
<path d="" fill="#666B83" transform="translate(0,0)"/>
<path d="" fill="#626A84" transform="translate(0,0)"/>
<path d="" fill="#815C72" transform="translate(0,0)"/>
<path d="" fill="#925668" transform="translate(0,0)"/>
<path d="" fill="#865E70" transform="translate(0,0)"/>
<path d="" fill="#6B6981" transform="translate(0,0)"/>
<path d="" fill="#EF9046" transform="translate(0,0)"/>
<path d="" fill="#A15A63" transform="translate(0,0)"/>
<path d="" fill="#9B5E6A" transform="translate(0,0)"/>
<path d="" fill="#EE7C4C" transform="translate(0,0)"/>
<path d="" fill="#EA724C" transform="translate(0,0)"/>
<path d="" fill="#EC734C" transform="translate(0,0)"/>
<path d="" fill="#E5664B" transform="translate(0,0)"/>
<path d="" fill="#BB5B62" transform="translate(0,0)"/>
<path d="" fill="#B85C61" transform="translate(0,0)"/>
<path d="" fill="#B85B60" transform="translate(0,0)"/>
<path d="" fill="#BD575B" transform="translate(0,0)"/>
<path d="" fill="#E8674A" transform="translate(0,0)"/>
<path d="" fill="#E76E4C" transform="translate(0,0)"/>
<path d="" fill="#E45F4C" transform="translate(0,0)"/>
<path d="" fill="#CF5454" transform="translate(0,0)"/>
<path d="" fill="#CD5350" transform="translate(0,0)"/>
<path d="" fill="#CF5453" transform="translate(0,0)"/>
<path d="" fill="#CF5351" transform="translate(0,0)"/>
<path d="" fill="#E05945" transform="translate(0,0)"/>
<path d="" fill="#D75352" transform="translate(0,0)"/>
<path d="" fill="#D8524E" transform="translate(0,0)"/>
<path d="" fill="#D8524D" transform="translate(0,0)"/>
<path d="" fill="#D74E4A" transform="translate(0,0)"/>
<path d="" fill="#D8524F" transform="translate(0,0)"/>
<path d="" fill="#D9514B" transform="translate(0,0)"/>
<path d="" fill="#DB504D" transform="translate(0,0)"/>
<path d="" fill="#DE5146" transform="translate(0,0)"/>
<path d="" fill="#DC524E" transform="translate(0,0)"/>
<path d="" fill="#DD5148" transform="translate(0,0)"/>
<path d="" fill="#DA4E4A" transform="translate(0,0)"/>
<path d="" fill="#DB4E47" transform="translate(0,0)"/>
<path d="" fill="#D94D48" transform="translate(0,0)"/>
<path d="" fill="#D84D49" transform="translate(0,0)"/>
<path d="" fill="#DA4E4A" transform="translate(0,0)"/>
<path d="" fill="#D74D47" transform="translate(0,0)"/>
<path d="" fill="#D84B48" transform="translate(0,0)"/>
<path d="" fill="#D84C49" transform="translate(0,0)"/>
<path d="" fill="#D94B47" transform="translate(0,0)"/>
<path d="" fill="#D84E45" transform="translate(0,0)"/>
<path d="" fill="#DA4B47" transform="translate(0,0)"/>
<path d="" fill="#DB4B49" transform="translate(0,0)"/>
<path d="" fill="#D84A47" transform="translate(0,0)"/>
<path d="" fill="#D84F49" transform="translate(0,0)"/>
<path d="" fill="#D64E48" transform="translate(0,0)"/>
<path d="" fill="#D74D47" transform="translate(0,0)"/>
<path d="" fill="#D94D48" transform="translate(0,0)"/>
<path d="" fill="#D74A45" transform="translate(0,0)"/>
<path d="" fill="#D94C47" transform="translate(0,0)"/>
<path d="" fill="#D64F48" transform="translate(0,0)"/>
<path d="" fill="#D94E49" transform="translate(0,0)"/>
<path d="" fill="#D74B45" transform="translate(0,0)"/>
<path d="" fill="#D74943" transform="translate(0,0)"/>
<path d="" fill="#DB4B46" transform="translate(0,0)"/>
<path d="" fill="#D74843" transform="translate(0,0)"/>
<path d="" fill="#D74A46" transform="translate(0,0)"/>
<path d="" fill="#D74C46" transform="translate(0,0)"/>
<path d="" fill="#D84C47" transform="translate(0,0)"/>
<path d="" fill="#D94B47" transform="translate(0,0)"/>
<path d="" fill="#DA4D47" transform="translate(0,0)"/>
<path d="" fill="#D84B47" transform="translate(0,0)"/>
<path d="" fill="#D44A45" transform="translate(0,0)"/>
<path d="" fill="#DA4C45" transform="translate(0,0)"/>
<path d="" fill="#D74D47" transform="translate(0,0)"/>
<path d="" fill="#D74942" transform="translate(0,0)"/>
<path d="" fill="#DA4B47" transform="translate(0,0)"/>
<path d="" fill="#DB4A46" transform="translate(0,0)"/>
<path d="" fill="#DB4B46" transform="translate(0,0)"/>
<path d="" fill="#D84A46" transform="translate(0,0)"/>
<path d="" fill="#D94E47" transform="translate(0,0)"/>
<path d="" fill="#DA4D47" transform="translate(0,0)"/>
<path d="" fill="#DC4947" transform="translate(0,0)"/>
<path d="" fill="#DC4C45" transform="translate(0,0)"/>
<path d="" fill="#D74E49" transform="translate(0,0)"/>
<path d="" fill="#DD4B46" transform="translate(0,0)"/>
<path d="" fill="#D84B45" transform="translate(0,0)"/>
<path d="" fill="#DD4A43" transform="translate(0,0)"/>
<path d="" fill="#DA4B47" transform="translate(0,0)"/>
<path d="" fill="#DC4946" transform="translate(0,0)"/>
<path d="" fill="#DA4C46" transform="translate(0,0)"/>
<path d="" fill="#DA4A44" transform="translate(0,0)"/>
<path d="" fill="#DA4D47" transform="translate(0,0)"/>
<path d="" fill="#DC4D45" transform="translate(0,0)"/>
<path d="" fill="#DF4B46" transform="translate(0,0)"/>
<path d="" fill="#DE4B45" transform="translate(0,0)"/>
<path d="" fill="#DE4B45" transform="translate(0,0)"/>
<path d="" fill="#DD4945" transform="translate(0,0)"/>
<path d="" fill="#E14B43" transform="translate(0,0)"/>
<path d="" fill="#DB4E45" transform="translate(0,0)"/>
<path d="" fill="#E04948" transform="translate(0,0)"/>
<path d="" fill="#DE4D49" transform="translate(0,0)"/>
<path d="" fill="#E04A46" transform="translate(0,0)"/>
<path d="" fill="#E24D48" transform="translate(0,0)"/>
<path d="" fill="#E14D47" transform="translate(0,0)"/>
<path d="" fill="#DE4B46" transform="translate(0,0)"/>
<path d="" fill="#DD4F47" transform="translate(0,0)"/>
<path d="" fill="#DF4F49" transform="translate(0,0)"/>
<path d="" fill="#E44E47" transform="translate(0,0)"/>
<path d="" fill="#E24C45" transform="translate(0,0)"/>
<path d="" fill="#E04D47" transform="translate(0,0)"/>
<path d="" fill="#E0544B" transform="translate(0,0)"/>
<path d="" fill="#E34F4C" transform="translate(0,0)"/>
<path d="" fill="#E15049" transform="translate(0,0)"/>
<path d="" fill="#E14E48" transform="translate(0,0)"/>
<path d="" fill="#E24F49" transform="translate(0,0)"/>
<path d="" fill="#E44F48" transform="translate(0,0)"/>
<path d="" fill="#E64F4B" transform="translate(0,0)"/>
<path d="" fill="#E5514A" transform="translate(0,0)"/>
<path d="" fill="#E44F4C" transform="translate(0,0)"/>
<path d="" fill="#E5544C" transform="translate(0,0)"/>
<path d="" fill="#E4504A" transform="translate(0,0)"/>
<path d="" fill="#E3524C" transform="translate(0,0)"/>
<path d="" fill="#E2514B" transform="translate(0,0)"/>
<path d="" fill="#E1534C" transform="translate(0,0)"/>
<path d="" fill="#E0524C" transform="translate(0,0)"/>
<path d="" fill="#E3514C" transform="translate(0,0)"/>
</svg>
